G04 #@! TF.GenerationSoftware,KiCad,Pcbnew,(5.1.4)-1*
G04 #@! TF.CreationDate,2019-08-22T22:42:16+09:00*
G04 #@! TF.ProjectId,kagisys_shield,6b616769-7379-4735-9f73-6869656c642e,rev?*
G04 #@! TF.SameCoordinates,Original*
G04 #@! TF.FileFunction,Copper,L2,Bot*
G04 #@! TF.FilePolarity,Positive*
%FSLAX46Y46*%
G04 Gerber Fmt 4.6, Leading zero omitted, Abs format (unit mm)*
G04 Created by KiCad (PCBNEW (5.1.4)-1) date 2019-08-22 22:42:16*
%MOMM*%
%LPD*%
G04 APERTURE LIST*
%ADD10R,1.700000X1.700000*%
%ADD11O,1.700000X1.700000*%
%ADD12O,1.600000X1.600000*%
%ADD13C,1.600000*%
%ADD14C,1.500000*%
%ADD15C,0.800000*%
%ADD16C,1.500000*%
%ADD17C,0.500000*%
G04 APERTURE END LIST*
D10*
X140000000Y-99000000D03*
D11*
X142540000Y-99000000D03*
X145080000Y-99000000D03*
X147620000Y-99000000D03*
D10*
X108250000Y-99000000D03*
D11*
X110790000Y-99000000D03*
X113330000Y-99000000D03*
D10*
X125500000Y-99000000D03*
D11*
X128040000Y-99000000D03*
X181790000Y-99000000D03*
D10*
X179250000Y-99000000D03*
D11*
X166620000Y-99000000D03*
X164080000Y-99000000D03*
X161540000Y-99000000D03*
D10*
X159000000Y-99000000D03*
X104750000Y-56750000D03*
D11*
X107290000Y-56750000D03*
X104750000Y-59290000D03*
X107290000Y-59290000D03*
X104750000Y-61830000D03*
X107290000Y-61830000D03*
X104750000Y-64370000D03*
X107290000Y-64370000D03*
X104750000Y-66910000D03*
X107290000Y-66910000D03*
X104750000Y-69450000D03*
X107290000Y-69450000D03*
X104750000Y-71990000D03*
X107290000Y-71990000D03*
D12*
X117200000Y-80500000D03*
D13*
X104500000Y-80500000D03*
X104500000Y-86500000D03*
D12*
X117200000Y-86500000D03*
D14*
X132750000Y-80750000D03*
D15*
X102547200Y-64370000D03*
X102468300Y-67010200D03*
D14*
X123635000Y-73635000D03*
X122750000Y-84000000D03*
X129000000Y-80750000D03*
D16*
X104750000Y-59290000D02*
X104750000Y-56750000D01*
X141000000Y-105250000D02*
X160500000Y-105250000D01*
X160500000Y-105250000D02*
X161540000Y-104210000D01*
X161540000Y-104210000D02*
X161540000Y-99000000D01*
X141000000Y-105250000D02*
X142540000Y-103710000D01*
X142540000Y-103710000D02*
X142540000Y-99000000D01*
X109750000Y-105250000D02*
X141000000Y-105250000D01*
X109750000Y-105250000D02*
X110790000Y-104210000D01*
X110790000Y-104210000D02*
X110790000Y-99000000D01*
X100000000Y-84750000D02*
X100000000Y-104250000D01*
X100000000Y-104250000D02*
X101000000Y-105250000D01*
X101000000Y-105250000D02*
X109750000Y-105250000D01*
X100000000Y-84750000D02*
X101750000Y-86500000D01*
X101750000Y-86500000D02*
X104500000Y-86500000D01*
X104750000Y-56750000D02*
X102400000Y-56750000D01*
X102400000Y-56750000D02*
X100000000Y-59150000D01*
X100000000Y-59150000D02*
X100000000Y-84750000D01*
D17*
X108640000Y-66910000D02*
X112387600Y-66910000D01*
X112387600Y-66910000D02*
X121588800Y-76111200D01*
X107290000Y-66910000D02*
X108640000Y-66910000D01*
D16*
X121588800Y-76111200D02*
X122000000Y-75700000D01*
X122000000Y-75700000D02*
X130700000Y-75700000D01*
X117200000Y-80500000D02*
X121588800Y-76111200D01*
X104750000Y-71990000D02*
X104750000Y-74750000D01*
X104750000Y-74750000D02*
X110500000Y-80500000D01*
X110500000Y-80500000D02*
X117200000Y-80500000D01*
X130700000Y-75700000D02*
X138200000Y-75700000D01*
X138200000Y-75700000D02*
X143250000Y-80750000D01*
X143250000Y-80750000D02*
X143250000Y-92250000D01*
X132750000Y-80750000D02*
X132750000Y-77750000D01*
X132750000Y-77750000D02*
X130700000Y-75700000D01*
X143250000Y-92250000D02*
X140000000Y-95500000D01*
X140000000Y-95500000D02*
X140000000Y-99000000D01*
X159000000Y-99000000D02*
X159000000Y-96650000D01*
X159000000Y-96650000D02*
X154600000Y-92250000D01*
X154600000Y-92250000D02*
X143250000Y-92250000D01*
X140000000Y-99000000D02*
X128040000Y-99000000D01*
D17*
X104750000Y-64370000D02*
X102547200Y-64370000D01*
X104750000Y-66910000D02*
X102568500Y-66910000D01*
X102568500Y-66910000D02*
X102468300Y-67010200D01*
X104750000Y-69450000D02*
X103428800Y-70771200D01*
X103428800Y-70771200D02*
X103428800Y-79428800D01*
X103428800Y-79428800D02*
X104500000Y-80500000D01*
D16*
X123500000Y-56750000D02*
X107290000Y-56750000D01*
X179250000Y-99000000D02*
X179250000Y-64500000D01*
X179250000Y-64500000D02*
X171500000Y-56750000D01*
X171500000Y-56750000D02*
X123500000Y-56750000D01*
X123635000Y-73635000D02*
X123635000Y-56885000D01*
X123635000Y-56885000D02*
X123500000Y-56750000D01*
X108250000Y-99000000D02*
X108250000Y-86750000D01*
X108250000Y-86750000D02*
X111000000Y-84000000D01*
X111000000Y-84000000D02*
X122750000Y-84000000D01*
X117200000Y-86500000D02*
X127000000Y-86500000D01*
X127000000Y-86500000D02*
X129000000Y-84500000D01*
X129000000Y-84500000D02*
X129000000Y-80750000D01*
X117200000Y-86500000D02*
X117200000Y-97800000D01*
X117200000Y-97800000D02*
X116000000Y-99000000D01*
X116000000Y-99000000D02*
X113330000Y-99000000D01*
M02*
