G04 #@! TF.GenerationSoftware,KiCad,Pcbnew,(5.1.4)-1*
G04 #@! TF.CreationDate,2019-08-20T16:37:38+09:00*
G04 #@! TF.ProjectId,kagisys_shield,6b616769-7379-4735-9f73-6869656c642e,rev?*
G04 #@! TF.SameCoordinates,Original*
G04 #@! TF.FileFunction,Legend,Top*
G04 #@! TF.FilePolarity,Positive*
%FSLAX46Y46*%
G04 Gerber Fmt 4.6, Leading zero omitted, Abs format (unit mm)*
G04 Created by KiCad (PCBNEW (5.1.4)-1) date 2019-08-20 16:37:38*
%MOMM*%
%LPD*%
G04 APERTURE LIST*
%ADD10C,0.120000*%
%ADD11C,0.150000*%
%ADD12C,0.254000*%
G04 APERTURE END LIST*
D10*
X200660000Y-73660000D02*
X137160000Y-73660000D01*
X200660000Y-116840000D02*
X200660000Y-73660000D01*
X137160000Y-116840000D02*
X200660000Y-116840000D01*
X137160000Y-73660000D02*
X137160000Y-116840000D01*
X151125001Y-88635001D02*
X151125001Y-103995001D01*
X151125001Y-103995001D02*
X153785001Y-103995001D01*
X153785001Y-103995001D02*
X153785001Y-88635001D01*
X153785001Y-88635001D02*
X151125001Y-88635001D01*
X153785001Y-89585001D02*
X159785001Y-89585001D01*
X159785001Y-89585001D02*
X159785001Y-90345001D01*
X159785001Y-90345001D02*
X153785001Y-90345001D01*
X153785001Y-89645001D02*
X159785001Y-89645001D01*
X153785001Y-89765001D02*
X159785001Y-89765001D01*
X153785001Y-89885001D02*
X159785001Y-89885001D01*
X153785001Y-90005001D02*
X159785001Y-90005001D01*
X153785001Y-90125001D02*
X159785001Y-90125001D01*
X153785001Y-90245001D02*
X159785001Y-90245001D01*
X150727930Y-89585001D02*
X151125001Y-89585001D01*
X150727930Y-90345001D02*
X151125001Y-90345001D01*
X148255001Y-89585001D02*
X148642072Y-89585001D01*
X148255001Y-90345001D02*
X148642072Y-90345001D01*
X151125001Y-91235001D02*
X153785001Y-91235001D01*
X153785001Y-92125001D02*
X159785001Y-92125001D01*
X159785001Y-92125001D02*
X159785001Y-92885001D01*
X159785001Y-92885001D02*
X153785001Y-92885001D01*
X150727930Y-92125001D02*
X151125001Y-92125001D01*
X150727930Y-92885001D02*
X151125001Y-92885001D01*
X148187930Y-92125001D02*
X148642072Y-92125001D01*
X148187930Y-92885001D02*
X148642072Y-92885001D01*
X151125001Y-93775001D02*
X153785001Y-93775001D01*
X153785001Y-94665001D02*
X159785001Y-94665001D01*
X159785001Y-94665001D02*
X159785001Y-95425001D01*
X159785001Y-95425001D02*
X153785001Y-95425001D01*
X150727930Y-94665001D02*
X151125001Y-94665001D01*
X150727930Y-95425001D02*
X151125001Y-95425001D01*
X148187930Y-94665001D02*
X148642072Y-94665001D01*
X148187930Y-95425001D02*
X148642072Y-95425001D01*
X151125001Y-96315001D02*
X153785001Y-96315001D01*
X153785001Y-97205001D02*
X159785001Y-97205001D01*
X159785001Y-97205001D02*
X159785001Y-97965001D01*
X159785001Y-97965001D02*
X153785001Y-97965001D01*
X150727930Y-97205001D02*
X151125001Y-97205001D01*
X150727930Y-97965001D02*
X151125001Y-97965001D01*
X148187930Y-97205001D02*
X148642072Y-97205001D01*
X148187930Y-97965001D02*
X148642072Y-97965001D01*
X151125001Y-98855001D02*
X153785001Y-98855001D01*
X153785001Y-99745001D02*
X159785001Y-99745001D01*
X159785001Y-99745001D02*
X159785001Y-100505001D01*
X159785001Y-100505001D02*
X153785001Y-100505001D01*
X150727930Y-99745001D02*
X151125001Y-99745001D01*
X150727930Y-100505001D02*
X151125001Y-100505001D01*
X148187930Y-99745001D02*
X148642072Y-99745001D01*
X148187930Y-100505001D02*
X148642072Y-100505001D01*
X151125001Y-101395001D02*
X153785001Y-101395001D01*
X153785001Y-102285001D02*
X159785001Y-102285001D01*
X159785001Y-102285001D02*
X159785001Y-103045001D01*
X159785001Y-103045001D02*
X153785001Y-103045001D01*
X150727930Y-102285001D02*
X151125001Y-102285001D01*
X150727930Y-103045001D02*
X151125001Y-103045001D01*
X148187930Y-102285001D02*
X148642072Y-102285001D01*
X148187930Y-103045001D02*
X148642072Y-103045001D01*
X145875001Y-89965001D02*
X145875001Y-88695001D01*
X145875001Y-88695001D02*
X147145001Y-88695001D01*
X173930000Y-75100000D02*
X173930000Y-83730000D01*
X173811905Y-75100000D02*
X173811905Y-83730000D01*
X173693810Y-75100000D02*
X173693810Y-83730000D01*
X173575715Y-75100000D02*
X173575715Y-83730000D01*
X173457620Y-75100000D02*
X173457620Y-83730000D01*
X173339525Y-75100000D02*
X173339525Y-83730000D01*
X173221430Y-75100000D02*
X173221430Y-83730000D01*
X173103335Y-75100000D02*
X173103335Y-83730000D01*
X172985240Y-75100000D02*
X172985240Y-83730000D01*
X172867145Y-75100000D02*
X172867145Y-83730000D01*
X172749050Y-75100000D02*
X172749050Y-83730000D01*
X172630955Y-75100000D02*
X172630955Y-83730000D01*
X172512860Y-75100000D02*
X172512860Y-83730000D01*
X172394765Y-75100000D02*
X172394765Y-83730000D01*
X172276670Y-75100000D02*
X172276670Y-83730000D01*
X172158575Y-75100000D02*
X172158575Y-83730000D01*
X172040480Y-75100000D02*
X172040480Y-83730000D01*
X171922385Y-75100000D02*
X171922385Y-83730000D01*
X171804290Y-75100000D02*
X171804290Y-83730000D01*
X171686195Y-75100000D02*
X171686195Y-83730000D01*
X171568100Y-75100000D02*
X171568100Y-83730000D01*
X173080000Y-83730000D02*
X173080000Y-84080000D01*
X172360000Y-83730000D02*
X172360000Y-84080000D01*
X170540000Y-83730000D02*
X170540000Y-84140000D01*
X169820000Y-83730000D02*
X169820000Y-84140000D01*
X168000000Y-83730000D02*
X168000000Y-84140000D01*
X167280000Y-83730000D02*
X167280000Y-84140000D01*
X165460000Y-83730000D02*
X165460000Y-84140000D01*
X164740000Y-83730000D02*
X164740000Y-84140000D01*
X171450000Y-75100000D02*
X171450000Y-83730000D01*
X168910000Y-75100000D02*
X168910000Y-83730000D01*
X166370000Y-75100000D02*
X166370000Y-83730000D01*
X174050000Y-75100000D02*
X174050000Y-83730000D01*
X174050000Y-83730000D02*
X163770000Y-83730000D01*
X163770000Y-75100000D02*
X163770000Y-83730000D01*
X174050000Y-75100000D02*
X163770000Y-75100000D01*
X174050000Y-86300000D02*
X172720000Y-86300000D01*
X174050000Y-85190000D02*
X174050000Y-86300000D01*
X176170000Y-114400000D02*
X176170000Y-105770000D01*
X176288095Y-114400000D02*
X176288095Y-105770000D01*
X176406190Y-114400000D02*
X176406190Y-105770000D01*
X176524285Y-114400000D02*
X176524285Y-105770000D01*
X176642380Y-114400000D02*
X176642380Y-105770000D01*
X176760475Y-114400000D02*
X176760475Y-105770000D01*
X176878570Y-114400000D02*
X176878570Y-105770000D01*
X176996665Y-114400000D02*
X176996665Y-105770000D01*
X177114760Y-114400000D02*
X177114760Y-105770000D01*
X177232855Y-114400000D02*
X177232855Y-105770000D01*
X177350950Y-114400000D02*
X177350950Y-105770000D01*
X177469045Y-114400000D02*
X177469045Y-105770000D01*
X177587140Y-114400000D02*
X177587140Y-105770000D01*
X177705235Y-114400000D02*
X177705235Y-105770000D01*
X177823330Y-114400000D02*
X177823330Y-105770000D01*
X177941425Y-114400000D02*
X177941425Y-105770000D01*
X178059520Y-114400000D02*
X178059520Y-105770000D01*
X178177615Y-114400000D02*
X178177615Y-105770000D01*
X178295710Y-114400000D02*
X178295710Y-105770000D01*
X178413805Y-114400000D02*
X178413805Y-105770000D01*
X178531900Y-114400000D02*
X178531900Y-105770000D01*
X177020000Y-105770000D02*
X177020000Y-105420000D01*
X177740000Y-105770000D02*
X177740000Y-105420000D01*
X179560000Y-105770000D02*
X179560000Y-105360000D01*
X180280000Y-105770000D02*
X180280000Y-105360000D01*
X182100000Y-105770000D02*
X182100000Y-105360000D01*
X182820000Y-105770000D02*
X182820000Y-105360000D01*
X178650000Y-114400000D02*
X178650000Y-105770000D01*
X181190000Y-114400000D02*
X181190000Y-105770000D01*
X176050000Y-114400000D02*
X176050000Y-105770000D01*
X176050000Y-105770000D02*
X183790000Y-105770000D01*
X183790000Y-114400000D02*
X183790000Y-105770000D01*
X176050000Y-114400000D02*
X183790000Y-114400000D01*
X176050000Y-103200000D02*
X177380000Y-103200000D01*
X176050000Y-104310000D02*
X176050000Y-103200000D01*
X164640000Y-114330000D02*
X164640000Y-105700000D01*
X164758095Y-114330000D02*
X164758095Y-105700000D01*
X164876190Y-114330000D02*
X164876190Y-105700000D01*
X164994285Y-114330000D02*
X164994285Y-105700000D01*
X165112380Y-114330000D02*
X165112380Y-105700000D01*
X165230475Y-114330000D02*
X165230475Y-105700000D01*
X165348570Y-114330000D02*
X165348570Y-105700000D01*
X165466665Y-114330000D02*
X165466665Y-105700000D01*
X165584760Y-114330000D02*
X165584760Y-105700000D01*
X165702855Y-114330000D02*
X165702855Y-105700000D01*
X165820950Y-114330000D02*
X165820950Y-105700000D01*
X165939045Y-114330000D02*
X165939045Y-105700000D01*
X166057140Y-114330000D02*
X166057140Y-105700000D01*
X166175235Y-114330000D02*
X166175235Y-105700000D01*
X166293330Y-114330000D02*
X166293330Y-105700000D01*
X166411425Y-114330000D02*
X166411425Y-105700000D01*
X166529520Y-114330000D02*
X166529520Y-105700000D01*
X166647615Y-114330000D02*
X166647615Y-105700000D01*
X166765710Y-114330000D02*
X166765710Y-105700000D01*
X166883805Y-114330000D02*
X166883805Y-105700000D01*
X167001900Y-114330000D02*
X167001900Y-105700000D01*
X165490000Y-105700000D02*
X165490000Y-105350000D01*
X166210000Y-105700000D02*
X166210000Y-105350000D01*
X168030000Y-105700000D02*
X168030000Y-105290000D01*
X168750000Y-105700000D02*
X168750000Y-105290000D01*
X167120000Y-114330000D02*
X167120000Y-105700000D01*
X164520000Y-114330000D02*
X164520000Y-105700000D01*
X164520000Y-105700000D02*
X169720000Y-105700000D01*
X169720000Y-114330000D02*
X169720000Y-105700000D01*
X164520000Y-114330000D02*
X169720000Y-114330000D01*
X164520000Y-103130000D02*
X165850000Y-103130000D01*
X164520000Y-104240000D02*
X164520000Y-103130000D01*
X186750000Y-85240000D02*
X186750000Y-86350000D01*
X186750000Y-86350000D02*
X185420000Y-86350000D01*
X186750000Y-75150000D02*
X181550000Y-75150000D01*
X181550000Y-75150000D02*
X181550000Y-83780000D01*
X186750000Y-83780000D02*
X181550000Y-83780000D01*
X186750000Y-75150000D02*
X186750000Y-83780000D01*
X184150000Y-75150000D02*
X184150000Y-83780000D01*
X182520000Y-83780000D02*
X182520000Y-84190000D01*
X183240000Y-83780000D02*
X183240000Y-84190000D01*
X185060000Y-83780000D02*
X185060000Y-84130000D01*
X185780000Y-83780000D02*
X185780000Y-84130000D01*
X184268100Y-75150000D02*
X184268100Y-83780000D01*
X184386195Y-75150000D02*
X184386195Y-83780000D01*
X184504290Y-75150000D02*
X184504290Y-83780000D01*
X184622385Y-75150000D02*
X184622385Y-83780000D01*
X184740480Y-75150000D02*
X184740480Y-83780000D01*
X184858575Y-75150000D02*
X184858575Y-83780000D01*
X184976670Y-75150000D02*
X184976670Y-83780000D01*
X185094765Y-75150000D02*
X185094765Y-83780000D01*
X185212860Y-75150000D02*
X185212860Y-83780000D01*
X185330955Y-75150000D02*
X185330955Y-83780000D01*
X185449050Y-75150000D02*
X185449050Y-83780000D01*
X185567145Y-75150000D02*
X185567145Y-83780000D01*
X185685240Y-75150000D02*
X185685240Y-83780000D01*
X185803335Y-75150000D02*
X185803335Y-83780000D01*
X185921430Y-75150000D02*
X185921430Y-83780000D01*
X186039525Y-75150000D02*
X186039525Y-83780000D01*
X186157620Y-75150000D02*
X186157620Y-83780000D01*
X186275715Y-75150000D02*
X186275715Y-83780000D01*
X186393810Y-75150000D02*
X186393810Y-83780000D01*
X186511905Y-75150000D02*
X186511905Y-83780000D01*
X186630000Y-75150000D02*
X186630000Y-83780000D01*
X190470000Y-100280000D02*
X189360000Y-100280000D01*
X189360000Y-100280000D02*
X189360000Y-98950000D01*
X200560000Y-100280000D02*
X200560000Y-90000000D01*
X200560000Y-90000000D02*
X191930000Y-90000000D01*
X191930000Y-100280000D02*
X191930000Y-90000000D01*
X200560000Y-100280000D02*
X191930000Y-100280000D01*
X200560000Y-92600000D02*
X191930000Y-92600000D01*
X200560000Y-95140000D02*
X191930000Y-95140000D01*
X200560000Y-97680000D02*
X191930000Y-97680000D01*
X191930000Y-90970000D02*
X191520000Y-90970000D01*
X191930000Y-91690000D02*
X191520000Y-91690000D01*
X191930000Y-93510000D02*
X191520000Y-93510000D01*
X191930000Y-94230000D02*
X191520000Y-94230000D01*
X191930000Y-96050000D02*
X191520000Y-96050000D01*
X191930000Y-96770000D02*
X191520000Y-96770000D01*
X191930000Y-98590000D02*
X191580000Y-98590000D01*
X191930000Y-99310000D02*
X191580000Y-99310000D01*
X200560000Y-97798100D02*
X191930000Y-97798100D01*
X200560000Y-97916195D02*
X191930000Y-97916195D01*
X200560000Y-98034290D02*
X191930000Y-98034290D01*
X200560000Y-98152385D02*
X191930000Y-98152385D01*
X200560000Y-98270480D02*
X191930000Y-98270480D01*
X200560000Y-98388575D02*
X191930000Y-98388575D01*
X200560000Y-98506670D02*
X191930000Y-98506670D01*
X200560000Y-98624765D02*
X191930000Y-98624765D01*
X200560000Y-98742860D02*
X191930000Y-98742860D01*
X200560000Y-98860955D02*
X191930000Y-98860955D01*
X200560000Y-98979050D02*
X191930000Y-98979050D01*
X200560000Y-99097145D02*
X191930000Y-99097145D01*
X200560000Y-99215240D02*
X191930000Y-99215240D01*
X200560000Y-99333335D02*
X191930000Y-99333335D01*
X200560000Y-99451430D02*
X191930000Y-99451430D01*
X200560000Y-99569525D02*
X191930000Y-99569525D01*
X200560000Y-99687620D02*
X191930000Y-99687620D01*
X200560000Y-99805715D02*
X191930000Y-99805715D01*
X200560000Y-99923810D02*
X191930000Y-99923810D01*
X200560000Y-100041905D02*
X191930000Y-100041905D01*
X200560000Y-100160000D02*
X191930000Y-100160000D01*
D11*
X152466667Y-87147381D02*
X152466667Y-87861667D01*
X152419048Y-88004524D01*
X152323810Y-88099762D01*
X152180953Y-88147381D01*
X152085715Y-88147381D01*
X153466667Y-88147381D02*
X152895239Y-88147381D01*
X153180953Y-88147381D02*
X153180953Y-87147381D01*
X153085715Y-87290239D01*
X152990477Y-87385477D01*
X152895239Y-87433096D01*
X174942380Y-81143333D02*
X175656666Y-81143333D01*
X175799523Y-81190952D01*
X175894761Y-81286190D01*
X175942380Y-81429047D01*
X175942380Y-81524285D01*
X175037619Y-80714761D02*
X174990000Y-80667142D01*
X174942380Y-80571904D01*
X174942380Y-80333809D01*
X174990000Y-80238571D01*
X175037619Y-80190952D01*
X175132857Y-80143333D01*
X175228095Y-80143333D01*
X175370952Y-80190952D01*
X175942380Y-80762380D01*
X175942380Y-80143333D01*
X174062380Y-109023333D02*
X174776666Y-109023333D01*
X174919523Y-109070952D01*
X175014761Y-109166190D01*
X175062380Y-109309047D01*
X175062380Y-109404285D01*
X174062380Y-108642380D02*
X174062380Y-108023333D01*
X174443333Y-108356666D01*
X174443333Y-108213809D01*
X174490952Y-108118571D01*
X174538571Y-108070952D01*
X174633809Y-108023333D01*
X174871904Y-108023333D01*
X174967142Y-108070952D01*
X175014761Y-108118571D01*
X175062380Y-108213809D01*
X175062380Y-108499523D01*
X175014761Y-108594761D01*
X174967142Y-108642380D01*
X162532380Y-108953333D02*
X163246666Y-108953333D01*
X163389523Y-109000952D01*
X163484761Y-109096190D01*
X163532380Y-109239047D01*
X163532380Y-109334285D01*
X162865714Y-108048571D02*
X163532380Y-108048571D01*
X162484761Y-108286666D02*
X163199047Y-108524761D01*
X163199047Y-107905714D01*
X187642380Y-81193333D02*
X188356666Y-81193333D01*
X188499523Y-81240952D01*
X188594761Y-81336190D01*
X188642380Y-81479047D01*
X188642380Y-81574285D01*
X187642380Y-80240952D02*
X187642380Y-80717142D01*
X188118571Y-80764761D01*
X188070952Y-80717142D01*
X188023333Y-80621904D01*
X188023333Y-80383809D01*
X188070952Y-80288571D01*
X188118571Y-80240952D01*
X188213809Y-80193333D01*
X188451904Y-80193333D01*
X188547142Y-80240952D01*
X188594761Y-80288571D01*
X188642380Y-80383809D01*
X188642380Y-80621904D01*
X188594761Y-80717142D01*
X188547142Y-80764761D01*
X194516666Y-101172380D02*
X194516666Y-101886666D01*
X194469047Y-102029523D01*
X194373809Y-102124761D01*
X194230952Y-102172380D01*
X194135714Y-102172380D01*
X195421428Y-101172380D02*
X195230952Y-101172380D01*
X195135714Y-101220000D01*
X195088095Y-101267619D01*
X194992857Y-101410476D01*
X194945238Y-101600952D01*
X194945238Y-101981904D01*
X194992857Y-102077142D01*
X195040476Y-102124761D01*
X195135714Y-102172380D01*
X195326190Y-102172380D01*
X195421428Y-102124761D01*
X195469047Y-102077142D01*
X195516666Y-101981904D01*
X195516666Y-101743809D01*
X195469047Y-101648571D01*
X195421428Y-101600952D01*
X195326190Y-101553333D01*
X195135714Y-101553333D01*
X195040476Y-101600952D01*
X194992857Y-101648571D01*
X194945238Y-101743809D01*
D12*
G36*
X200533000Y-116713000D02*
G01*
X188087000Y-116713000D01*
X188087000Y-109347000D01*
X200533000Y-109347000D01*
X200533000Y-116713000D01*
X200533000Y-116713000D01*
G37*
X200533000Y-116713000D02*
X188087000Y-116713000D01*
X188087000Y-109347000D01*
X200533000Y-109347000D01*
X200533000Y-116713000D01*
G36*
X200533000Y-109093000D02*
G01*
X195707000Y-109093000D01*
X195707000Y-106807000D01*
X200533000Y-106807000D01*
X200533000Y-109093000D01*
X200533000Y-109093000D01*
G37*
X200533000Y-109093000D02*
X195707000Y-109093000D01*
X195707000Y-106807000D01*
X200533000Y-106807000D01*
X200533000Y-109093000D01*
G36*
X187833000Y-116713000D02*
G01*
X137287000Y-116713000D01*
X137287000Y-111887000D01*
X187833000Y-111887000D01*
X187833000Y-116713000D01*
X187833000Y-116713000D01*
G37*
X187833000Y-116713000D02*
X137287000Y-116713000D01*
X137287000Y-111887000D01*
X187833000Y-111887000D01*
X187833000Y-116713000D01*
G36*
X142113000Y-111633000D02*
G01*
X137287000Y-111633000D01*
X137287000Y-94107000D01*
X142113000Y-94107000D01*
X142113000Y-111633000D01*
X142113000Y-111633000D01*
G37*
X142113000Y-111633000D02*
X137287000Y-111633000D01*
X137287000Y-94107000D01*
X142113000Y-94107000D01*
X142113000Y-111633000D01*
G36*
X139573000Y-93853000D02*
G01*
X137287000Y-93853000D01*
X137287000Y-73787000D01*
X139573000Y-73787000D01*
X139573000Y-93853000D01*
X139573000Y-93853000D01*
G37*
X139573000Y-93853000D02*
X137287000Y-93853000D01*
X137287000Y-73787000D01*
X139573000Y-73787000D01*
X139573000Y-93853000D01*
G36*
X200533000Y-81153000D02*
G01*
X190627000Y-81153000D01*
X190627000Y-73787000D01*
X200533000Y-73787000D01*
X200533000Y-81153000D01*
X200533000Y-81153000D01*
G37*
X200533000Y-81153000D02*
X190627000Y-81153000D01*
X190627000Y-73787000D01*
X200533000Y-73787000D01*
X200533000Y-81153000D01*
G36*
X200533000Y-91313000D02*
G01*
X195707000Y-91313000D01*
X195707000Y-81407000D01*
X200533000Y-81407000D01*
X200533000Y-91313000D01*
X200533000Y-91313000D01*
G37*
X200533000Y-91313000D02*
X195707000Y-91313000D01*
X195707000Y-81407000D01*
X200533000Y-81407000D01*
X200533000Y-91313000D01*
M02*
