G04 #@! TF.GenerationSoftware,KiCad,Pcbnew,(5.1.4)-1*
G04 #@! TF.CreationDate,2019-08-20T16:37:38+09:00*
G04 #@! TF.ProjectId,kagisys_shield,6b616769-7379-4735-9f73-6869656c642e,rev?*
G04 #@! TF.SameCoordinates,Original*
G04 #@! TF.FileFunction,Copper,L1,Top*
G04 #@! TF.FilePolarity,Positive*
%FSLAX46Y46*%
G04 Gerber Fmt 4.6, Leading zero omitted, Abs format (unit mm)*
G04 Created by KiCad (PCBNEW (5.1.4)-1) date 2019-08-20 16:37:38*
%MOMM*%
%LPD*%
G04 APERTURE LIST*
%ADD10R,1.700000X1.700000*%
%ADD11O,1.700000X1.700000*%
%ADD12C,1.000000*%
%ADD13C,0.250000*%
G04 APERTURE END LIST*
D10*
X147145001Y-89965001D03*
D11*
X149685001Y-89965001D03*
X147145001Y-92505001D03*
X149685001Y-92505001D03*
X147145001Y-95045001D03*
X149685001Y-95045001D03*
X147145001Y-97585001D03*
X149685001Y-97585001D03*
X147145001Y-100125001D03*
X149685001Y-100125001D03*
X147145001Y-102665001D03*
X149685001Y-102665001D03*
D10*
X172720000Y-85190000D03*
D11*
X170180000Y-85190000D03*
X167640000Y-85190000D03*
X165100000Y-85190000D03*
D10*
X177380000Y-104310000D03*
D11*
X179920000Y-104310000D03*
X182460000Y-104310000D03*
D10*
X165850000Y-104240000D03*
D11*
X168390000Y-104240000D03*
X182880000Y-85240000D03*
D10*
X185420000Y-85240000D03*
D11*
X190470000Y-91330000D03*
X190470000Y-93870000D03*
X190470000Y-96410000D03*
D10*
X190470000Y-98950000D03*
D12*
X170180000Y-83820000D02*
X170180000Y-85190000D01*
X147145001Y-88115001D02*
X147320000Y-87940002D01*
X147145001Y-89965001D02*
X147145001Y-88115001D01*
X147320000Y-83820000D02*
X149860000Y-81280000D01*
X147320000Y-87940002D02*
X147320000Y-83820000D01*
X149860000Y-81280000D02*
X167640000Y-81280000D01*
X167640000Y-81280000D02*
X170180000Y-83820000D01*
X185420000Y-83390000D02*
X185420000Y-85240000D01*
X183310000Y-81280000D02*
X185420000Y-83390000D01*
X167640000Y-81280000D02*
X183310000Y-81280000D01*
X195580000Y-93980000D02*
X193040000Y-96520000D01*
X191672081Y-96410000D02*
X190470000Y-96410000D01*
X192930000Y-96410000D02*
X191672081Y-96410000D01*
X193040000Y-96520000D02*
X192930000Y-96410000D01*
X195580000Y-93980000D02*
X195580000Y-104140000D01*
X195580000Y-104140000D02*
X193040000Y-106680000D01*
X182535998Y-106680000D02*
X180340000Y-104484002D01*
X193040000Y-106680000D02*
X182535998Y-106680000D01*
X185420000Y-85240000D02*
X185420000Y-96520000D01*
X185530000Y-96410000D02*
X190470000Y-96410000D01*
X185420000Y-96520000D02*
X185530000Y-96410000D01*
D13*
X149685001Y-89965001D02*
X151334999Y-89965001D01*
X156110000Y-85190000D02*
X165100000Y-85190000D01*
X151334999Y-89965001D02*
X156110000Y-85190000D01*
D12*
X147145001Y-102665001D02*
X147145001Y-106505001D01*
X147145001Y-106505001D02*
X149860000Y-109220000D01*
X149860000Y-109220000D02*
X165100000Y-109220000D01*
X168390000Y-105930000D02*
X168390000Y-104240000D01*
X165100000Y-109220000D02*
X168390000Y-105930000D01*
X165100000Y-109220000D02*
X175260000Y-109220000D01*
X177380000Y-107100000D02*
X177380000Y-104310000D01*
X175260000Y-109220000D02*
X177380000Y-107100000D01*
X172720000Y-88900000D02*
X172720000Y-85190000D01*
X164034999Y-97585001D02*
X172720000Y-88900000D01*
X161494999Y-97585001D02*
X183945001Y-97585001D01*
X161494999Y-97585001D02*
X164034999Y-97585001D01*
X149685001Y-97585001D02*
X161494999Y-97585001D01*
X185310000Y-98950000D02*
X190470000Y-98950000D01*
X183945001Y-97585001D02*
X185310000Y-98950000D01*
D13*
X149685001Y-92505001D02*
X156414999Y-92505001D01*
X156414999Y-92505001D02*
X160020000Y-88900000D01*
X163930000Y-88900000D02*
X167640000Y-85190000D01*
X160020000Y-88900000D02*
X163930000Y-88900000D01*
X192900000Y-91440000D02*
X190470000Y-93870000D01*
X193040000Y-91440000D02*
X192900000Y-91440000D01*
X193040000Y-86360000D02*
X193040000Y-91440000D01*
X145845001Y-95045001D02*
X142240000Y-91440000D01*
X147145001Y-95045001D02*
X145845001Y-95045001D01*
X142240000Y-91440000D02*
X142240000Y-78740000D01*
X142240000Y-78740000D02*
X144780000Y-76200000D01*
X144780000Y-76200000D02*
X182880000Y-76200000D01*
X182880000Y-76200000D02*
X193040000Y-86360000D01*
X190470000Y-90127919D02*
X190470000Y-91330000D01*
X190470000Y-86966410D02*
X190470000Y-90127919D01*
X182693600Y-79190010D02*
X190470000Y-86966410D01*
X144966400Y-79190010D02*
X182693600Y-79190010D01*
X144780000Y-79376410D02*
X144966400Y-79190010D01*
X144780000Y-92043590D02*
X144780000Y-79376410D01*
X146606410Y-93870000D02*
X144780000Y-92043590D01*
X148510000Y-93870000D02*
X146606410Y-93870000D01*
X149685001Y-95045001D02*
X148510000Y-93870000D01*
X147145001Y-96694999D02*
X147145001Y-97585001D01*
X147430000Y-96410000D02*
X147145001Y-96694999D01*
X181654999Y-84014999D02*
X171609999Y-84014999D01*
X182880000Y-85240000D02*
X181654999Y-84014999D01*
X171609999Y-84014999D02*
X171355001Y-84269997D01*
X171355001Y-84269997D02*
X171355001Y-85754001D01*
X171355001Y-85754001D02*
X160699002Y-96410000D01*
X160699002Y-96410000D02*
X147430000Y-96410000D01*
X178275001Y-100125001D02*
X182460000Y-104310000D01*
X149685001Y-100125001D02*
X178275001Y-100125001D01*
X149685001Y-102665001D02*
X149685001Y-103965001D01*
X149685001Y-103965001D02*
X152400000Y-106680000D01*
X152400000Y-106680000D02*
X165100000Y-106680000D01*
X165850000Y-105930000D02*
X165850000Y-104240000D01*
X165100000Y-106680000D02*
X165850000Y-105930000D01*
M02*
