G04 #@! TF.GenerationSoftware,KiCad,Pcbnew,(5.1.4)-1*
G04 #@! TF.CreationDate,2019-08-22T22:42:39+09:00*
G04 #@! TF.ProjectId,kagisys_shield,6b616769-7379-4735-9f73-6869656c642e,rev?*
G04 #@! TF.SameCoordinates,Original*
G04 #@! TF.FileFunction,Legend,Top*
G04 #@! TF.FilePolarity,Positive*
%FSLAX46Y46*%
G04 Gerber Fmt 4.6, Leading zero omitted, Abs format (unit mm)*
G04 Created by KiCad (PCBNEW (5.1.4)-1) date 2019-08-22 22:42:39*
%MOMM*%
%LPD*%
G04 APERTURE LIST*
%ADD10C,0.120000*%
%ADD11C,0.150000*%
G04 APERTURE END LIST*
D10*
X95000000Y-50000000D02*
X95000000Y-112500000D01*
X190000000Y-50000000D02*
X95000000Y-50000000D01*
X190000000Y-112500000D02*
X190000000Y-50000000D01*
X138790000Y-109090000D02*
X138790000Y-100460000D01*
X138908095Y-109090000D02*
X138908095Y-100460000D01*
X139026190Y-109090000D02*
X139026190Y-100460000D01*
X139144285Y-109090000D02*
X139144285Y-100460000D01*
X139262380Y-109090000D02*
X139262380Y-100460000D01*
X139380475Y-109090000D02*
X139380475Y-100460000D01*
X139498570Y-109090000D02*
X139498570Y-100460000D01*
X139616665Y-109090000D02*
X139616665Y-100460000D01*
X139734760Y-109090000D02*
X139734760Y-100460000D01*
X139852855Y-109090000D02*
X139852855Y-100460000D01*
X139970950Y-109090000D02*
X139970950Y-100460000D01*
X140089045Y-109090000D02*
X140089045Y-100460000D01*
X140207140Y-109090000D02*
X140207140Y-100460000D01*
X140325235Y-109090000D02*
X140325235Y-100460000D01*
X140443330Y-109090000D02*
X140443330Y-100460000D01*
X140561425Y-109090000D02*
X140561425Y-100460000D01*
X140679520Y-109090000D02*
X140679520Y-100460000D01*
X140797615Y-109090000D02*
X140797615Y-100460000D01*
X140915710Y-109090000D02*
X140915710Y-100460000D01*
X141033805Y-109090000D02*
X141033805Y-100460000D01*
X141151900Y-109090000D02*
X141151900Y-100460000D01*
X139640000Y-100460000D02*
X139640000Y-100110000D01*
X140360000Y-100460000D02*
X140360000Y-100110000D01*
X142180000Y-100460000D02*
X142180000Y-100050000D01*
X142900000Y-100460000D02*
X142900000Y-100050000D01*
X144720000Y-100460000D02*
X144720000Y-100050000D01*
X145440000Y-100460000D02*
X145440000Y-100050000D01*
X147260000Y-100460000D02*
X147260000Y-100050000D01*
X147980000Y-100460000D02*
X147980000Y-100050000D01*
X141270000Y-109090000D02*
X141270000Y-100460000D01*
X143810000Y-109090000D02*
X143810000Y-100460000D01*
X146350000Y-109090000D02*
X146350000Y-100460000D01*
X138670000Y-109090000D02*
X138670000Y-100460000D01*
X138670000Y-100460000D02*
X148950000Y-100460000D01*
X148950000Y-109090000D02*
X148950000Y-100460000D01*
X138670000Y-109090000D02*
X148950000Y-109090000D01*
X138670000Y-97890000D02*
X140000000Y-97890000D01*
X138670000Y-99000000D02*
X138670000Y-97890000D01*
X107040000Y-109090000D02*
X107040000Y-100460000D01*
X107158095Y-109090000D02*
X107158095Y-100460000D01*
X107276190Y-109090000D02*
X107276190Y-100460000D01*
X107394285Y-109090000D02*
X107394285Y-100460000D01*
X107512380Y-109090000D02*
X107512380Y-100460000D01*
X107630475Y-109090000D02*
X107630475Y-100460000D01*
X107748570Y-109090000D02*
X107748570Y-100460000D01*
X107866665Y-109090000D02*
X107866665Y-100460000D01*
X107984760Y-109090000D02*
X107984760Y-100460000D01*
X108102855Y-109090000D02*
X108102855Y-100460000D01*
X108220950Y-109090000D02*
X108220950Y-100460000D01*
X108339045Y-109090000D02*
X108339045Y-100460000D01*
X108457140Y-109090000D02*
X108457140Y-100460000D01*
X108575235Y-109090000D02*
X108575235Y-100460000D01*
X108693330Y-109090000D02*
X108693330Y-100460000D01*
X108811425Y-109090000D02*
X108811425Y-100460000D01*
X108929520Y-109090000D02*
X108929520Y-100460000D01*
X109047615Y-109090000D02*
X109047615Y-100460000D01*
X109165710Y-109090000D02*
X109165710Y-100460000D01*
X109283805Y-109090000D02*
X109283805Y-100460000D01*
X109401900Y-109090000D02*
X109401900Y-100460000D01*
X107890000Y-100460000D02*
X107890000Y-100110000D01*
X108610000Y-100460000D02*
X108610000Y-100110000D01*
X110430000Y-100460000D02*
X110430000Y-100050000D01*
X111150000Y-100460000D02*
X111150000Y-100050000D01*
X112970000Y-100460000D02*
X112970000Y-100050000D01*
X113690000Y-100460000D02*
X113690000Y-100050000D01*
X109520000Y-109090000D02*
X109520000Y-100460000D01*
X112060000Y-109090000D02*
X112060000Y-100460000D01*
X106920000Y-109090000D02*
X106920000Y-100460000D01*
X106920000Y-100460000D02*
X114660000Y-100460000D01*
X114660000Y-109090000D02*
X114660000Y-100460000D01*
X106920000Y-109090000D02*
X114660000Y-109090000D01*
X106920000Y-97890000D02*
X108250000Y-97890000D01*
X106920000Y-99000000D02*
X106920000Y-97890000D01*
X124290000Y-109090000D02*
X124290000Y-100460000D01*
X124408095Y-109090000D02*
X124408095Y-100460000D01*
X124526190Y-109090000D02*
X124526190Y-100460000D01*
X124644285Y-109090000D02*
X124644285Y-100460000D01*
X124762380Y-109090000D02*
X124762380Y-100460000D01*
X124880475Y-109090000D02*
X124880475Y-100460000D01*
X124998570Y-109090000D02*
X124998570Y-100460000D01*
X125116665Y-109090000D02*
X125116665Y-100460000D01*
X125234760Y-109090000D02*
X125234760Y-100460000D01*
X125352855Y-109090000D02*
X125352855Y-100460000D01*
X125470950Y-109090000D02*
X125470950Y-100460000D01*
X125589045Y-109090000D02*
X125589045Y-100460000D01*
X125707140Y-109090000D02*
X125707140Y-100460000D01*
X125825235Y-109090000D02*
X125825235Y-100460000D01*
X125943330Y-109090000D02*
X125943330Y-100460000D01*
X126061425Y-109090000D02*
X126061425Y-100460000D01*
X126179520Y-109090000D02*
X126179520Y-100460000D01*
X126297615Y-109090000D02*
X126297615Y-100460000D01*
X126415710Y-109090000D02*
X126415710Y-100460000D01*
X126533805Y-109090000D02*
X126533805Y-100460000D01*
X126651900Y-109090000D02*
X126651900Y-100460000D01*
X125140000Y-100460000D02*
X125140000Y-100110000D01*
X125860000Y-100460000D02*
X125860000Y-100110000D01*
X127680000Y-100460000D02*
X127680000Y-100050000D01*
X128400000Y-100460000D02*
X128400000Y-100050000D01*
X126770000Y-109090000D02*
X126770000Y-100460000D01*
X124170000Y-109090000D02*
X124170000Y-100460000D01*
X124170000Y-100460000D02*
X129370000Y-100460000D01*
X129370000Y-109090000D02*
X129370000Y-100460000D01*
X124170000Y-109090000D02*
X129370000Y-109090000D01*
X124170000Y-97890000D02*
X125500000Y-97890000D01*
X124170000Y-99000000D02*
X124170000Y-97890000D01*
X177920000Y-99000000D02*
X177920000Y-97890000D01*
X177920000Y-97890000D02*
X179250000Y-97890000D01*
X177920000Y-109090000D02*
X183120000Y-109090000D01*
X183120000Y-109090000D02*
X183120000Y-100460000D01*
X177920000Y-100460000D02*
X183120000Y-100460000D01*
X177920000Y-109090000D02*
X177920000Y-100460000D01*
X180520000Y-109090000D02*
X180520000Y-100460000D01*
X182150000Y-100460000D02*
X182150000Y-100050000D01*
X181430000Y-100460000D02*
X181430000Y-100050000D01*
X179610000Y-100460000D02*
X179610000Y-100110000D01*
X178890000Y-100460000D02*
X178890000Y-100110000D01*
X180401900Y-109090000D02*
X180401900Y-100460000D01*
X180283805Y-109090000D02*
X180283805Y-100460000D01*
X180165710Y-109090000D02*
X180165710Y-100460000D01*
X180047615Y-109090000D02*
X180047615Y-100460000D01*
X179929520Y-109090000D02*
X179929520Y-100460000D01*
X179811425Y-109090000D02*
X179811425Y-100460000D01*
X179693330Y-109090000D02*
X179693330Y-100460000D01*
X179575235Y-109090000D02*
X179575235Y-100460000D01*
X179457140Y-109090000D02*
X179457140Y-100460000D01*
X179339045Y-109090000D02*
X179339045Y-100460000D01*
X179220950Y-109090000D02*
X179220950Y-100460000D01*
X179102855Y-109090000D02*
X179102855Y-100460000D01*
X178984760Y-109090000D02*
X178984760Y-100460000D01*
X178866665Y-109090000D02*
X178866665Y-100460000D01*
X178748570Y-109090000D02*
X178748570Y-100460000D01*
X178630475Y-109090000D02*
X178630475Y-100460000D01*
X178512380Y-109090000D02*
X178512380Y-100460000D01*
X178394285Y-109090000D02*
X178394285Y-100460000D01*
X178276190Y-109090000D02*
X178276190Y-100460000D01*
X178158095Y-109090000D02*
X178158095Y-100460000D01*
X178040000Y-109090000D02*
X178040000Y-100460000D01*
X157670000Y-99000000D02*
X157670000Y-97890000D01*
X157670000Y-97890000D02*
X159000000Y-97890000D01*
X157670000Y-109090000D02*
X167950000Y-109090000D01*
X167950000Y-109090000D02*
X167950000Y-100460000D01*
X157670000Y-100460000D02*
X167950000Y-100460000D01*
X157670000Y-109090000D02*
X157670000Y-100460000D01*
X165350000Y-109090000D02*
X165350000Y-100460000D01*
X162810000Y-109090000D02*
X162810000Y-100460000D01*
X160270000Y-109090000D02*
X160270000Y-100460000D01*
X166980000Y-100460000D02*
X166980000Y-100050000D01*
X166260000Y-100460000D02*
X166260000Y-100050000D01*
X164440000Y-100460000D02*
X164440000Y-100050000D01*
X163720000Y-100460000D02*
X163720000Y-100050000D01*
X161900000Y-100460000D02*
X161900000Y-100050000D01*
X161180000Y-100460000D02*
X161180000Y-100050000D01*
X159360000Y-100460000D02*
X159360000Y-100110000D01*
X158640000Y-100460000D02*
X158640000Y-100110000D01*
X160151900Y-109090000D02*
X160151900Y-100460000D01*
X160033805Y-109090000D02*
X160033805Y-100460000D01*
X159915710Y-109090000D02*
X159915710Y-100460000D01*
X159797615Y-109090000D02*
X159797615Y-100460000D01*
X159679520Y-109090000D02*
X159679520Y-100460000D01*
X159561425Y-109090000D02*
X159561425Y-100460000D01*
X159443330Y-109090000D02*
X159443330Y-100460000D01*
X159325235Y-109090000D02*
X159325235Y-100460000D01*
X159207140Y-109090000D02*
X159207140Y-100460000D01*
X159089045Y-109090000D02*
X159089045Y-100460000D01*
X158970950Y-109090000D02*
X158970950Y-100460000D01*
X158852855Y-109090000D02*
X158852855Y-100460000D01*
X158734760Y-109090000D02*
X158734760Y-100460000D01*
X158616665Y-109090000D02*
X158616665Y-100460000D01*
X158498570Y-109090000D02*
X158498570Y-100460000D01*
X158380475Y-109090000D02*
X158380475Y-100460000D01*
X158262380Y-109090000D02*
X158262380Y-100460000D01*
X158144285Y-109090000D02*
X158144285Y-100460000D01*
X158026190Y-109090000D02*
X158026190Y-100460000D01*
X157908095Y-109090000D02*
X157908095Y-100460000D01*
X157790000Y-109090000D02*
X157790000Y-100460000D01*
X108730000Y-55420000D02*
X108730000Y-73320000D01*
X108730000Y-73320000D02*
X111390000Y-73320000D01*
X111390000Y-73320000D02*
X111390000Y-55420000D01*
X111390000Y-55420000D02*
X108730000Y-55420000D01*
X111390000Y-56370000D02*
X117390000Y-56370000D01*
X117390000Y-56370000D02*
X117390000Y-57130000D01*
X117390000Y-57130000D02*
X111390000Y-57130000D01*
X111390000Y-56430000D02*
X117390000Y-56430000D01*
X111390000Y-56550000D02*
X117390000Y-56550000D01*
X111390000Y-56670000D02*
X117390000Y-56670000D01*
X111390000Y-56790000D02*
X117390000Y-56790000D01*
X111390000Y-56910000D02*
X117390000Y-56910000D01*
X111390000Y-57030000D02*
X117390000Y-57030000D01*
X108332929Y-56370000D02*
X108730000Y-56370000D01*
X108332929Y-57130000D02*
X108730000Y-57130000D01*
X105860000Y-56370000D02*
X106247071Y-56370000D01*
X105860000Y-57130000D02*
X106247071Y-57130000D01*
X108730000Y-58020000D02*
X111390000Y-58020000D01*
X111390000Y-58910000D02*
X117390000Y-58910000D01*
X117390000Y-58910000D02*
X117390000Y-59670000D01*
X117390000Y-59670000D02*
X111390000Y-59670000D01*
X108332929Y-58910000D02*
X108730000Y-58910000D01*
X108332929Y-59670000D02*
X108730000Y-59670000D01*
X105792929Y-58910000D02*
X106247071Y-58910000D01*
X105792929Y-59670000D02*
X106247071Y-59670000D01*
X108730000Y-60560000D02*
X111390000Y-60560000D01*
X111390000Y-61450000D02*
X117390000Y-61450000D01*
X117390000Y-61450000D02*
X117390000Y-62210000D01*
X117390000Y-62210000D02*
X111390000Y-62210000D01*
X108332929Y-61450000D02*
X108730000Y-61450000D01*
X108332929Y-62210000D02*
X108730000Y-62210000D01*
X105792929Y-61450000D02*
X106247071Y-61450000D01*
X105792929Y-62210000D02*
X106247071Y-62210000D01*
X108730000Y-63100000D02*
X111390000Y-63100000D01*
X111390000Y-63990000D02*
X117390000Y-63990000D01*
X117390000Y-63990000D02*
X117390000Y-64750000D01*
X117390000Y-64750000D02*
X111390000Y-64750000D01*
X108332929Y-63990000D02*
X108730000Y-63990000D01*
X108332929Y-64750000D02*
X108730000Y-64750000D01*
X105792929Y-63990000D02*
X106247071Y-63990000D01*
X105792929Y-64750000D02*
X106247071Y-64750000D01*
X108730000Y-65640000D02*
X111390000Y-65640000D01*
X111390000Y-66530000D02*
X117390000Y-66530000D01*
X117390000Y-66530000D02*
X117390000Y-67290000D01*
X117390000Y-67290000D02*
X111390000Y-67290000D01*
X108332929Y-66530000D02*
X108730000Y-66530000D01*
X108332929Y-67290000D02*
X108730000Y-67290000D01*
X105792929Y-66530000D02*
X106247071Y-66530000D01*
X105792929Y-67290000D02*
X106247071Y-67290000D01*
X108730000Y-68180000D02*
X111390000Y-68180000D01*
X111390000Y-69070000D02*
X117390000Y-69070000D01*
X117390000Y-69070000D02*
X117390000Y-69830000D01*
X117390000Y-69830000D02*
X111390000Y-69830000D01*
X108332929Y-69070000D02*
X108730000Y-69070000D01*
X108332929Y-69830000D02*
X108730000Y-69830000D01*
X105792929Y-69070000D02*
X106247071Y-69070000D01*
X105792929Y-69830000D02*
X106247071Y-69830000D01*
X108730000Y-70720000D02*
X111390000Y-70720000D01*
X111390000Y-71610000D02*
X117390000Y-71610000D01*
X117390000Y-71610000D02*
X117390000Y-72370000D01*
X117390000Y-72370000D02*
X111390000Y-72370000D01*
X108332929Y-71610000D02*
X108730000Y-71610000D01*
X108332929Y-72370000D02*
X108730000Y-72370000D01*
X105792929Y-71610000D02*
X106247071Y-71610000D01*
X105792929Y-72370000D02*
X106247071Y-72370000D01*
X103480000Y-56750000D02*
X103480000Y-55480000D01*
X103480000Y-55480000D02*
X104750000Y-55480000D01*
X125395000Y-82107000D02*
X125395000Y-81177000D01*
X125395000Y-78947000D02*
X125395000Y-79877000D01*
X125395000Y-78947000D02*
X123235000Y-78947000D01*
X125395000Y-82107000D02*
X123935000Y-82107000D01*
X130990000Y-82670000D02*
X132450000Y-82670000D01*
X130990000Y-85830000D02*
X133150000Y-85830000D01*
X130990000Y-85830000D02*
X130990000Y-84900000D01*
X130990000Y-82670000D02*
X130990000Y-83600000D01*
X116160000Y-80500000D02*
X115470000Y-80500000D01*
X105540000Y-80500000D02*
X106230000Y-80500000D01*
X115470000Y-78780000D02*
X106230000Y-78780000D01*
X115470000Y-82220000D02*
X115470000Y-78780000D01*
X106230000Y-82220000D02*
X115470000Y-82220000D01*
X106230000Y-78780000D02*
X106230000Y-82220000D01*
X106230000Y-84780000D02*
X106230000Y-88220000D01*
X106230000Y-88220000D02*
X115470000Y-88220000D01*
X115470000Y-88220000D02*
X115470000Y-84780000D01*
X115470000Y-84780000D02*
X106230000Y-84780000D01*
X105540000Y-86500000D02*
X106230000Y-86500000D01*
X116160000Y-86500000D02*
X115470000Y-86500000D01*
D11*
X136682380Y-103713333D02*
X137396666Y-103713333D01*
X137539523Y-103760952D01*
X137634761Y-103856190D01*
X137682380Y-103999047D01*
X137682380Y-104094285D01*
X136777619Y-103284761D02*
X136730000Y-103237142D01*
X136682380Y-103141904D01*
X136682380Y-102903809D01*
X136730000Y-102808571D01*
X136777619Y-102760952D01*
X136872857Y-102713333D01*
X136968095Y-102713333D01*
X137110952Y-102760952D01*
X137682380Y-103332380D01*
X137682380Y-102713333D01*
X104932380Y-103713333D02*
X105646666Y-103713333D01*
X105789523Y-103760952D01*
X105884761Y-103856190D01*
X105932380Y-103999047D01*
X105932380Y-104094285D01*
X104932380Y-103332380D02*
X104932380Y-102713333D01*
X105313333Y-103046666D01*
X105313333Y-102903809D01*
X105360952Y-102808571D01*
X105408571Y-102760952D01*
X105503809Y-102713333D01*
X105741904Y-102713333D01*
X105837142Y-102760952D01*
X105884761Y-102808571D01*
X105932380Y-102903809D01*
X105932380Y-103189523D01*
X105884761Y-103284761D01*
X105837142Y-103332380D01*
X122182380Y-103713333D02*
X122896666Y-103713333D01*
X123039523Y-103760952D01*
X123134761Y-103856190D01*
X123182380Y-103999047D01*
X123182380Y-104094285D01*
X122515714Y-102808571D02*
X123182380Y-102808571D01*
X122134761Y-103046666D02*
X122849047Y-103284761D01*
X122849047Y-102665714D01*
X175932380Y-103713333D02*
X176646666Y-103713333D01*
X176789523Y-103760952D01*
X176884761Y-103856190D01*
X176932380Y-103999047D01*
X176932380Y-104094285D01*
X175932380Y-102760952D02*
X175932380Y-103237142D01*
X176408571Y-103284761D01*
X176360952Y-103237142D01*
X176313333Y-103141904D01*
X176313333Y-102903809D01*
X176360952Y-102808571D01*
X176408571Y-102760952D01*
X176503809Y-102713333D01*
X176741904Y-102713333D01*
X176837142Y-102760952D01*
X176884761Y-102808571D01*
X176932380Y-102903809D01*
X176932380Y-103141904D01*
X176884761Y-103237142D01*
X176837142Y-103284761D01*
X155682380Y-103713333D02*
X156396666Y-103713333D01*
X156539523Y-103760952D01*
X156634761Y-103856190D01*
X156682380Y-103999047D01*
X156682380Y-104094285D01*
X155682380Y-102808571D02*
X155682380Y-102999047D01*
X155730000Y-103094285D01*
X155777619Y-103141904D01*
X155920476Y-103237142D01*
X156110952Y-103284761D01*
X156491904Y-103284761D01*
X156587142Y-103237142D01*
X156634761Y-103189523D01*
X156682380Y-103094285D01*
X156682380Y-102903809D01*
X156634761Y-102808571D01*
X156587142Y-102760952D01*
X156491904Y-102713333D01*
X156253809Y-102713333D01*
X156158571Y-102760952D01*
X156110952Y-102808571D01*
X156063333Y-102903809D01*
X156063333Y-103094285D01*
X156110952Y-103189523D01*
X156158571Y-103237142D01*
X156253809Y-103284761D01*
X110071666Y-53932380D02*
X110071666Y-54646666D01*
X110024047Y-54789523D01*
X109928809Y-54884761D01*
X109785952Y-54932380D01*
X109690714Y-54932380D01*
X111071666Y-54932380D02*
X110500238Y-54932380D01*
X110785952Y-54932380D02*
X110785952Y-53932380D01*
X110690714Y-54075238D01*
X110595476Y-54170476D01*
X110500238Y-54218095D01*
X124539761Y-78574619D02*
X124444523Y-78527000D01*
X124349285Y-78431761D01*
X124206428Y-78288904D01*
X124111190Y-78241285D01*
X124015952Y-78241285D01*
X124063571Y-78479380D02*
X123968333Y-78431761D01*
X123873095Y-78336523D01*
X123825476Y-78146047D01*
X123825476Y-77812714D01*
X123873095Y-77622238D01*
X123968333Y-77527000D01*
X124063571Y-77479380D01*
X124254047Y-77479380D01*
X124349285Y-77527000D01*
X124444523Y-77622238D01*
X124492142Y-77812714D01*
X124492142Y-78146047D01*
X124444523Y-78336523D01*
X124349285Y-78431761D01*
X124254047Y-78479380D01*
X124063571Y-78479380D01*
X125444523Y-78479380D02*
X124873095Y-78479380D01*
X125158809Y-78479380D02*
X125158809Y-77479380D01*
X125063571Y-77622238D01*
X124968333Y-77717476D01*
X124873095Y-77765095D01*
X131654761Y-87297619D02*
X131559523Y-87250000D01*
X131464285Y-87154761D01*
X131321428Y-87011904D01*
X131226190Y-86964285D01*
X131130952Y-86964285D01*
X131178571Y-87202380D02*
X131083333Y-87154761D01*
X130988095Y-87059523D01*
X130940476Y-86869047D01*
X130940476Y-86535714D01*
X130988095Y-86345238D01*
X131083333Y-86250000D01*
X131178571Y-86202380D01*
X131369047Y-86202380D01*
X131464285Y-86250000D01*
X131559523Y-86345238D01*
X131607142Y-86535714D01*
X131607142Y-86869047D01*
X131559523Y-87059523D01*
X131464285Y-87154761D01*
X131369047Y-87202380D01*
X131178571Y-87202380D01*
X131988095Y-86297619D02*
X132035714Y-86250000D01*
X132130952Y-86202380D01*
X132369047Y-86202380D01*
X132464285Y-86250000D01*
X132511904Y-86297619D01*
X132559523Y-86392857D01*
X132559523Y-86488095D01*
X132511904Y-86630952D01*
X131940476Y-87202380D01*
X132559523Y-87202380D01*
X110683333Y-78232380D02*
X110350000Y-77756190D01*
X110111904Y-78232380D02*
X110111904Y-77232380D01*
X110492857Y-77232380D01*
X110588095Y-77280000D01*
X110635714Y-77327619D01*
X110683333Y-77422857D01*
X110683333Y-77565714D01*
X110635714Y-77660952D01*
X110588095Y-77708571D01*
X110492857Y-77756190D01*
X110111904Y-77756190D01*
X111635714Y-78232380D02*
X111064285Y-78232380D01*
X111350000Y-78232380D02*
X111350000Y-77232380D01*
X111254761Y-77375238D01*
X111159523Y-77470476D01*
X111064285Y-77518095D01*
X110683333Y-84232380D02*
X110350000Y-83756190D01*
X110111904Y-84232380D02*
X110111904Y-83232380D01*
X110492857Y-83232380D01*
X110588095Y-83280000D01*
X110635714Y-83327619D01*
X110683333Y-83422857D01*
X110683333Y-83565714D01*
X110635714Y-83660952D01*
X110588095Y-83708571D01*
X110492857Y-83756190D01*
X110111904Y-83756190D01*
X111064285Y-83327619D02*
X111111904Y-83280000D01*
X111207142Y-83232380D01*
X111445238Y-83232380D01*
X111540476Y-83280000D01*
X111588095Y-83327619D01*
X111635714Y-83422857D01*
X111635714Y-83518095D01*
X111588095Y-83660952D01*
X111016666Y-84232380D01*
X111635714Y-84232380D01*
M02*
