G04 #@! TF.GenerationSoftware,KiCad,Pcbnew,(5.1.4)-1*
G04 #@! TF.CreationDate,2019-08-22T22:42:39+09:00*
G04 #@! TF.ProjectId,kagisys_shield,6b616769-7379-4735-9f73-6869656c642e,rev?*
G04 #@! TF.SameCoordinates,Original*
G04 #@! TF.FileFunction,Soldermask,Top*
G04 #@! TF.FilePolarity,Negative*
%FSLAX46Y46*%
G04 Gerber Fmt 4.6, Leading zero omitted, Abs format (unit mm)*
G04 Created by KiCad (PCBNEW (5.1.4)-1) date 2019-08-22 22:42:39*
%MOMM*%
%LPD*%
G04 APERTURE LIST*
%ADD10C,0.100000*%
G04 APERTURE END LIST*
D10*
G36*
X109151000Y-99901000D02*
G01*
X107349000Y-99901000D01*
X107349000Y-98099000D01*
X109151000Y-98099000D01*
X109151000Y-99901000D01*
X109151000Y-99901000D01*
G37*
G36*
X180151000Y-99901000D02*
G01*
X178349000Y-99901000D01*
X178349000Y-98099000D01*
X180151000Y-98099000D01*
X180151000Y-99901000D01*
X180151000Y-99901000D01*
G37*
G36*
X140901000Y-99901000D02*
G01*
X139099000Y-99901000D01*
X139099000Y-98099000D01*
X140901000Y-98099000D01*
X140901000Y-99901000D01*
X140901000Y-99901000D01*
G37*
G36*
X142650442Y-98105518D02*
G01*
X142716627Y-98112037D01*
X142886466Y-98163557D01*
X143042991Y-98247222D01*
X143078729Y-98276552D01*
X143180186Y-98359814D01*
X143263448Y-98461271D01*
X143292778Y-98497009D01*
X143376443Y-98653534D01*
X143427963Y-98823373D01*
X143445359Y-99000000D01*
X143427963Y-99176627D01*
X143376443Y-99346466D01*
X143292778Y-99502991D01*
X143263448Y-99538729D01*
X143180186Y-99640186D01*
X143078729Y-99723448D01*
X143042991Y-99752778D01*
X142886466Y-99836443D01*
X142716627Y-99887963D01*
X142650443Y-99894481D01*
X142584260Y-99901000D01*
X142495740Y-99901000D01*
X142429557Y-99894481D01*
X142363373Y-99887963D01*
X142193534Y-99836443D01*
X142037009Y-99752778D01*
X142001271Y-99723448D01*
X141899814Y-99640186D01*
X141816552Y-99538729D01*
X141787222Y-99502991D01*
X141703557Y-99346466D01*
X141652037Y-99176627D01*
X141634641Y-99000000D01*
X141652037Y-98823373D01*
X141703557Y-98653534D01*
X141787222Y-98497009D01*
X141816552Y-98461271D01*
X141899814Y-98359814D01*
X142001271Y-98276552D01*
X142037009Y-98247222D01*
X142193534Y-98163557D01*
X142363373Y-98112037D01*
X142429558Y-98105518D01*
X142495740Y-98099000D01*
X142584260Y-98099000D01*
X142650442Y-98105518D01*
X142650442Y-98105518D01*
G37*
G36*
X145190442Y-98105518D02*
G01*
X145256627Y-98112037D01*
X145426466Y-98163557D01*
X145582991Y-98247222D01*
X145618729Y-98276552D01*
X145720186Y-98359814D01*
X145803448Y-98461271D01*
X145832778Y-98497009D01*
X145916443Y-98653534D01*
X145967963Y-98823373D01*
X145985359Y-99000000D01*
X145967963Y-99176627D01*
X145916443Y-99346466D01*
X145832778Y-99502991D01*
X145803448Y-99538729D01*
X145720186Y-99640186D01*
X145618729Y-99723448D01*
X145582991Y-99752778D01*
X145426466Y-99836443D01*
X145256627Y-99887963D01*
X145190443Y-99894481D01*
X145124260Y-99901000D01*
X145035740Y-99901000D01*
X144969557Y-99894481D01*
X144903373Y-99887963D01*
X144733534Y-99836443D01*
X144577009Y-99752778D01*
X144541271Y-99723448D01*
X144439814Y-99640186D01*
X144356552Y-99538729D01*
X144327222Y-99502991D01*
X144243557Y-99346466D01*
X144192037Y-99176627D01*
X144174641Y-99000000D01*
X144192037Y-98823373D01*
X144243557Y-98653534D01*
X144327222Y-98497009D01*
X144356552Y-98461271D01*
X144439814Y-98359814D01*
X144541271Y-98276552D01*
X144577009Y-98247222D01*
X144733534Y-98163557D01*
X144903373Y-98112037D01*
X144969558Y-98105518D01*
X145035740Y-98099000D01*
X145124260Y-98099000D01*
X145190442Y-98105518D01*
X145190442Y-98105518D01*
G37*
G36*
X147730442Y-98105518D02*
G01*
X147796627Y-98112037D01*
X147966466Y-98163557D01*
X148122991Y-98247222D01*
X148158729Y-98276552D01*
X148260186Y-98359814D01*
X148343448Y-98461271D01*
X148372778Y-98497009D01*
X148456443Y-98653534D01*
X148507963Y-98823373D01*
X148525359Y-99000000D01*
X148507963Y-99176627D01*
X148456443Y-99346466D01*
X148372778Y-99502991D01*
X148343448Y-99538729D01*
X148260186Y-99640186D01*
X148158729Y-99723448D01*
X148122991Y-99752778D01*
X147966466Y-99836443D01*
X147796627Y-99887963D01*
X147730443Y-99894481D01*
X147664260Y-99901000D01*
X147575740Y-99901000D01*
X147509557Y-99894481D01*
X147443373Y-99887963D01*
X147273534Y-99836443D01*
X147117009Y-99752778D01*
X147081271Y-99723448D01*
X146979814Y-99640186D01*
X146896552Y-99538729D01*
X146867222Y-99502991D01*
X146783557Y-99346466D01*
X146732037Y-99176627D01*
X146714641Y-99000000D01*
X146732037Y-98823373D01*
X146783557Y-98653534D01*
X146867222Y-98497009D01*
X146896552Y-98461271D01*
X146979814Y-98359814D01*
X147081271Y-98276552D01*
X147117009Y-98247222D01*
X147273534Y-98163557D01*
X147443373Y-98112037D01*
X147509558Y-98105518D01*
X147575740Y-98099000D01*
X147664260Y-98099000D01*
X147730442Y-98105518D01*
X147730442Y-98105518D01*
G37*
G36*
X110900442Y-98105518D02*
G01*
X110966627Y-98112037D01*
X111136466Y-98163557D01*
X111292991Y-98247222D01*
X111328729Y-98276552D01*
X111430186Y-98359814D01*
X111513448Y-98461271D01*
X111542778Y-98497009D01*
X111626443Y-98653534D01*
X111677963Y-98823373D01*
X111695359Y-99000000D01*
X111677963Y-99176627D01*
X111626443Y-99346466D01*
X111542778Y-99502991D01*
X111513448Y-99538729D01*
X111430186Y-99640186D01*
X111328729Y-99723448D01*
X111292991Y-99752778D01*
X111136466Y-99836443D01*
X110966627Y-99887963D01*
X110900443Y-99894481D01*
X110834260Y-99901000D01*
X110745740Y-99901000D01*
X110679557Y-99894481D01*
X110613373Y-99887963D01*
X110443534Y-99836443D01*
X110287009Y-99752778D01*
X110251271Y-99723448D01*
X110149814Y-99640186D01*
X110066552Y-99538729D01*
X110037222Y-99502991D01*
X109953557Y-99346466D01*
X109902037Y-99176627D01*
X109884641Y-99000000D01*
X109902037Y-98823373D01*
X109953557Y-98653534D01*
X110037222Y-98497009D01*
X110066552Y-98461271D01*
X110149814Y-98359814D01*
X110251271Y-98276552D01*
X110287009Y-98247222D01*
X110443534Y-98163557D01*
X110613373Y-98112037D01*
X110679558Y-98105518D01*
X110745740Y-98099000D01*
X110834260Y-98099000D01*
X110900442Y-98105518D01*
X110900442Y-98105518D01*
G37*
G36*
X113440442Y-98105518D02*
G01*
X113506627Y-98112037D01*
X113676466Y-98163557D01*
X113832991Y-98247222D01*
X113868729Y-98276552D01*
X113970186Y-98359814D01*
X114053448Y-98461271D01*
X114082778Y-98497009D01*
X114166443Y-98653534D01*
X114217963Y-98823373D01*
X114235359Y-99000000D01*
X114217963Y-99176627D01*
X114166443Y-99346466D01*
X114082778Y-99502991D01*
X114053448Y-99538729D01*
X113970186Y-99640186D01*
X113868729Y-99723448D01*
X113832991Y-99752778D01*
X113676466Y-99836443D01*
X113506627Y-99887963D01*
X113440443Y-99894481D01*
X113374260Y-99901000D01*
X113285740Y-99901000D01*
X113219557Y-99894481D01*
X113153373Y-99887963D01*
X112983534Y-99836443D01*
X112827009Y-99752778D01*
X112791271Y-99723448D01*
X112689814Y-99640186D01*
X112606552Y-99538729D01*
X112577222Y-99502991D01*
X112493557Y-99346466D01*
X112442037Y-99176627D01*
X112424641Y-99000000D01*
X112442037Y-98823373D01*
X112493557Y-98653534D01*
X112577222Y-98497009D01*
X112606552Y-98461271D01*
X112689814Y-98359814D01*
X112791271Y-98276552D01*
X112827009Y-98247222D01*
X112983534Y-98163557D01*
X113153373Y-98112037D01*
X113219558Y-98105518D01*
X113285740Y-98099000D01*
X113374260Y-98099000D01*
X113440442Y-98105518D01*
X113440442Y-98105518D01*
G37*
G36*
X126401000Y-99901000D02*
G01*
X124599000Y-99901000D01*
X124599000Y-98099000D01*
X126401000Y-98099000D01*
X126401000Y-99901000D01*
X126401000Y-99901000D01*
G37*
G36*
X128150442Y-98105518D02*
G01*
X128216627Y-98112037D01*
X128386466Y-98163557D01*
X128542991Y-98247222D01*
X128578729Y-98276552D01*
X128680186Y-98359814D01*
X128763448Y-98461271D01*
X128792778Y-98497009D01*
X128876443Y-98653534D01*
X128927963Y-98823373D01*
X128945359Y-99000000D01*
X128927963Y-99176627D01*
X128876443Y-99346466D01*
X128792778Y-99502991D01*
X128763448Y-99538729D01*
X128680186Y-99640186D01*
X128578729Y-99723448D01*
X128542991Y-99752778D01*
X128386466Y-99836443D01*
X128216627Y-99887963D01*
X128150443Y-99894481D01*
X128084260Y-99901000D01*
X127995740Y-99901000D01*
X127929557Y-99894481D01*
X127863373Y-99887963D01*
X127693534Y-99836443D01*
X127537009Y-99752778D01*
X127501271Y-99723448D01*
X127399814Y-99640186D01*
X127316552Y-99538729D01*
X127287222Y-99502991D01*
X127203557Y-99346466D01*
X127152037Y-99176627D01*
X127134641Y-99000000D01*
X127152037Y-98823373D01*
X127203557Y-98653534D01*
X127287222Y-98497009D01*
X127316552Y-98461271D01*
X127399814Y-98359814D01*
X127501271Y-98276552D01*
X127537009Y-98247222D01*
X127693534Y-98163557D01*
X127863373Y-98112037D01*
X127929558Y-98105518D01*
X127995740Y-98099000D01*
X128084260Y-98099000D01*
X128150442Y-98105518D01*
X128150442Y-98105518D01*
G37*
G36*
X181900442Y-98105518D02*
G01*
X181966627Y-98112037D01*
X182136466Y-98163557D01*
X182292991Y-98247222D01*
X182328729Y-98276552D01*
X182430186Y-98359814D01*
X182513448Y-98461271D01*
X182542778Y-98497009D01*
X182626443Y-98653534D01*
X182677963Y-98823373D01*
X182695359Y-99000000D01*
X182677963Y-99176627D01*
X182626443Y-99346466D01*
X182542778Y-99502991D01*
X182513448Y-99538729D01*
X182430186Y-99640186D01*
X182328729Y-99723448D01*
X182292991Y-99752778D01*
X182136466Y-99836443D01*
X181966627Y-99887963D01*
X181900443Y-99894481D01*
X181834260Y-99901000D01*
X181745740Y-99901000D01*
X181679557Y-99894481D01*
X181613373Y-99887963D01*
X181443534Y-99836443D01*
X181287009Y-99752778D01*
X181251271Y-99723448D01*
X181149814Y-99640186D01*
X181066552Y-99538729D01*
X181037222Y-99502991D01*
X180953557Y-99346466D01*
X180902037Y-99176627D01*
X180884641Y-99000000D01*
X180902037Y-98823373D01*
X180953557Y-98653534D01*
X181037222Y-98497009D01*
X181066552Y-98461271D01*
X181149814Y-98359814D01*
X181251271Y-98276552D01*
X181287009Y-98247222D01*
X181443534Y-98163557D01*
X181613373Y-98112037D01*
X181679558Y-98105518D01*
X181745740Y-98099000D01*
X181834260Y-98099000D01*
X181900442Y-98105518D01*
X181900442Y-98105518D01*
G37*
G36*
X166730442Y-98105518D02*
G01*
X166796627Y-98112037D01*
X166966466Y-98163557D01*
X167122991Y-98247222D01*
X167158729Y-98276552D01*
X167260186Y-98359814D01*
X167343448Y-98461271D01*
X167372778Y-98497009D01*
X167456443Y-98653534D01*
X167507963Y-98823373D01*
X167525359Y-99000000D01*
X167507963Y-99176627D01*
X167456443Y-99346466D01*
X167372778Y-99502991D01*
X167343448Y-99538729D01*
X167260186Y-99640186D01*
X167158729Y-99723448D01*
X167122991Y-99752778D01*
X166966466Y-99836443D01*
X166796627Y-99887963D01*
X166730443Y-99894481D01*
X166664260Y-99901000D01*
X166575740Y-99901000D01*
X166509557Y-99894481D01*
X166443373Y-99887963D01*
X166273534Y-99836443D01*
X166117009Y-99752778D01*
X166081271Y-99723448D01*
X165979814Y-99640186D01*
X165896552Y-99538729D01*
X165867222Y-99502991D01*
X165783557Y-99346466D01*
X165732037Y-99176627D01*
X165714641Y-99000000D01*
X165732037Y-98823373D01*
X165783557Y-98653534D01*
X165867222Y-98497009D01*
X165896552Y-98461271D01*
X165979814Y-98359814D01*
X166081271Y-98276552D01*
X166117009Y-98247222D01*
X166273534Y-98163557D01*
X166443373Y-98112037D01*
X166509558Y-98105518D01*
X166575740Y-98099000D01*
X166664260Y-98099000D01*
X166730442Y-98105518D01*
X166730442Y-98105518D01*
G37*
G36*
X164190442Y-98105518D02*
G01*
X164256627Y-98112037D01*
X164426466Y-98163557D01*
X164582991Y-98247222D01*
X164618729Y-98276552D01*
X164720186Y-98359814D01*
X164803448Y-98461271D01*
X164832778Y-98497009D01*
X164916443Y-98653534D01*
X164967963Y-98823373D01*
X164985359Y-99000000D01*
X164967963Y-99176627D01*
X164916443Y-99346466D01*
X164832778Y-99502991D01*
X164803448Y-99538729D01*
X164720186Y-99640186D01*
X164618729Y-99723448D01*
X164582991Y-99752778D01*
X164426466Y-99836443D01*
X164256627Y-99887963D01*
X164190443Y-99894481D01*
X164124260Y-99901000D01*
X164035740Y-99901000D01*
X163969557Y-99894481D01*
X163903373Y-99887963D01*
X163733534Y-99836443D01*
X163577009Y-99752778D01*
X163541271Y-99723448D01*
X163439814Y-99640186D01*
X163356552Y-99538729D01*
X163327222Y-99502991D01*
X163243557Y-99346466D01*
X163192037Y-99176627D01*
X163174641Y-99000000D01*
X163192037Y-98823373D01*
X163243557Y-98653534D01*
X163327222Y-98497009D01*
X163356552Y-98461271D01*
X163439814Y-98359814D01*
X163541271Y-98276552D01*
X163577009Y-98247222D01*
X163733534Y-98163557D01*
X163903373Y-98112037D01*
X163969558Y-98105518D01*
X164035740Y-98099000D01*
X164124260Y-98099000D01*
X164190442Y-98105518D01*
X164190442Y-98105518D01*
G37*
G36*
X161650442Y-98105518D02*
G01*
X161716627Y-98112037D01*
X161886466Y-98163557D01*
X162042991Y-98247222D01*
X162078729Y-98276552D01*
X162180186Y-98359814D01*
X162263448Y-98461271D01*
X162292778Y-98497009D01*
X162376443Y-98653534D01*
X162427963Y-98823373D01*
X162445359Y-99000000D01*
X162427963Y-99176627D01*
X162376443Y-99346466D01*
X162292778Y-99502991D01*
X162263448Y-99538729D01*
X162180186Y-99640186D01*
X162078729Y-99723448D01*
X162042991Y-99752778D01*
X161886466Y-99836443D01*
X161716627Y-99887963D01*
X161650443Y-99894481D01*
X161584260Y-99901000D01*
X161495740Y-99901000D01*
X161429557Y-99894481D01*
X161363373Y-99887963D01*
X161193534Y-99836443D01*
X161037009Y-99752778D01*
X161001271Y-99723448D01*
X160899814Y-99640186D01*
X160816552Y-99538729D01*
X160787222Y-99502991D01*
X160703557Y-99346466D01*
X160652037Y-99176627D01*
X160634641Y-99000000D01*
X160652037Y-98823373D01*
X160703557Y-98653534D01*
X160787222Y-98497009D01*
X160816552Y-98461271D01*
X160899814Y-98359814D01*
X161001271Y-98276552D01*
X161037009Y-98247222D01*
X161193534Y-98163557D01*
X161363373Y-98112037D01*
X161429558Y-98105518D01*
X161495740Y-98099000D01*
X161584260Y-98099000D01*
X161650442Y-98105518D01*
X161650442Y-98105518D01*
G37*
G36*
X159901000Y-99901000D02*
G01*
X158099000Y-99901000D01*
X158099000Y-98099000D01*
X159901000Y-98099000D01*
X159901000Y-99901000D01*
X159901000Y-99901000D01*
G37*
G36*
X117366823Y-85661313D02*
G01*
X117527242Y-85709976D01*
X117594361Y-85745852D01*
X117675078Y-85788996D01*
X117804659Y-85895341D01*
X117911004Y-86024922D01*
X117911005Y-86024924D01*
X117990024Y-86172758D01*
X118038687Y-86333177D01*
X118055117Y-86500000D01*
X118038687Y-86666823D01*
X117990024Y-86827242D01*
X117949477Y-86903100D01*
X117911004Y-86975078D01*
X117804659Y-87104659D01*
X117675078Y-87211004D01*
X117675076Y-87211005D01*
X117527242Y-87290024D01*
X117366823Y-87338687D01*
X117241804Y-87351000D01*
X117158196Y-87351000D01*
X117033177Y-87338687D01*
X116872758Y-87290024D01*
X116724924Y-87211005D01*
X116724922Y-87211004D01*
X116595341Y-87104659D01*
X116488996Y-86975078D01*
X116450523Y-86903100D01*
X116409976Y-86827242D01*
X116361313Y-86666823D01*
X116344883Y-86500000D01*
X116361313Y-86333177D01*
X116409976Y-86172758D01*
X116488995Y-86024924D01*
X116488996Y-86024922D01*
X116595341Y-85895341D01*
X116724922Y-85788996D01*
X116805639Y-85745852D01*
X116872758Y-85709976D01*
X117033177Y-85661313D01*
X117158196Y-85649000D01*
X117241804Y-85649000D01*
X117366823Y-85661313D01*
X117366823Y-85661313D01*
G37*
G36*
X104748228Y-85681703D02*
G01*
X104903100Y-85745853D01*
X105042481Y-85838985D01*
X105161015Y-85957519D01*
X105254147Y-86096900D01*
X105318297Y-86251772D01*
X105351000Y-86416184D01*
X105351000Y-86583816D01*
X105318297Y-86748228D01*
X105254147Y-86903100D01*
X105161015Y-87042481D01*
X105042481Y-87161015D01*
X104903100Y-87254147D01*
X104748228Y-87318297D01*
X104583816Y-87351000D01*
X104416184Y-87351000D01*
X104251772Y-87318297D01*
X104096900Y-87254147D01*
X103957519Y-87161015D01*
X103838985Y-87042481D01*
X103745853Y-86903100D01*
X103681703Y-86748228D01*
X103649000Y-86583816D01*
X103649000Y-86416184D01*
X103681703Y-86251772D01*
X103745853Y-86096900D01*
X103838985Y-85957519D01*
X103957519Y-85838985D01*
X104096900Y-85745853D01*
X104251772Y-85681703D01*
X104416184Y-85649000D01*
X104583816Y-85649000D01*
X104748228Y-85681703D01*
X104748228Y-85681703D01*
G37*
G36*
X133251000Y-85651000D02*
G01*
X132249000Y-85651000D01*
X132249000Y-84749000D01*
X133251000Y-84749000D01*
X133251000Y-85651000D01*
X133251000Y-85651000D01*
G37*
G36*
X131251000Y-84701000D02*
G01*
X130249000Y-84701000D01*
X130249000Y-83799000D01*
X131251000Y-83799000D01*
X131251000Y-84701000D01*
X131251000Y-84701000D01*
G37*
G36*
X133251000Y-83751000D02*
G01*
X132249000Y-83751000D01*
X132249000Y-82849000D01*
X133251000Y-82849000D01*
X133251000Y-83751000D01*
X133251000Y-83751000D01*
G37*
G36*
X124136000Y-81928000D02*
G01*
X123134000Y-81928000D01*
X123134000Y-81026000D01*
X124136000Y-81026000D01*
X124136000Y-81928000D01*
X124136000Y-81928000D01*
G37*
G36*
X117366823Y-79661313D02*
G01*
X117527242Y-79709976D01*
X117594361Y-79745852D01*
X117675078Y-79788996D01*
X117804659Y-79895341D01*
X117911004Y-80024922D01*
X117911005Y-80024924D01*
X117990024Y-80172758D01*
X118038687Y-80333177D01*
X118055117Y-80500000D01*
X118038687Y-80666823D01*
X117990024Y-80827242D01*
X117949477Y-80903100D01*
X117911004Y-80975078D01*
X117804659Y-81104659D01*
X117675078Y-81211004D01*
X117675076Y-81211005D01*
X117527242Y-81290024D01*
X117366823Y-81338687D01*
X117241804Y-81351000D01*
X117158196Y-81351000D01*
X117033177Y-81338687D01*
X116872758Y-81290024D01*
X116724924Y-81211005D01*
X116724922Y-81211004D01*
X116595341Y-81104659D01*
X116488996Y-80975078D01*
X116450523Y-80903100D01*
X116409976Y-80827242D01*
X116361313Y-80666823D01*
X116344883Y-80500000D01*
X116361313Y-80333177D01*
X116409976Y-80172758D01*
X116488995Y-80024924D01*
X116488996Y-80024922D01*
X116595341Y-79895341D01*
X116724922Y-79788996D01*
X116805639Y-79745852D01*
X116872758Y-79709976D01*
X117033177Y-79661313D01*
X117158196Y-79649000D01*
X117241804Y-79649000D01*
X117366823Y-79661313D01*
X117366823Y-79661313D01*
G37*
G36*
X104748228Y-79681703D02*
G01*
X104903100Y-79745853D01*
X105042481Y-79838985D01*
X105161015Y-79957519D01*
X105254147Y-80096900D01*
X105318297Y-80251772D01*
X105351000Y-80416184D01*
X105351000Y-80583816D01*
X105318297Y-80748228D01*
X105254147Y-80903100D01*
X105161015Y-81042481D01*
X105042481Y-81161015D01*
X104903100Y-81254147D01*
X104748228Y-81318297D01*
X104583816Y-81351000D01*
X104416184Y-81351000D01*
X104251772Y-81318297D01*
X104096900Y-81254147D01*
X103957519Y-81161015D01*
X103838985Y-81042481D01*
X103745853Y-80903100D01*
X103681703Y-80748228D01*
X103649000Y-80583816D01*
X103649000Y-80416184D01*
X103681703Y-80251772D01*
X103745853Y-80096900D01*
X103838985Y-79957519D01*
X103957519Y-79838985D01*
X104096900Y-79745853D01*
X104251772Y-79681703D01*
X104416184Y-79649000D01*
X104583816Y-79649000D01*
X104748228Y-79681703D01*
X104748228Y-79681703D01*
G37*
G36*
X126136000Y-80978000D02*
G01*
X125134000Y-80978000D01*
X125134000Y-80076000D01*
X126136000Y-80076000D01*
X126136000Y-80978000D01*
X126136000Y-80978000D01*
G37*
G36*
X124136000Y-80028000D02*
G01*
X123134000Y-80028000D01*
X123134000Y-79126000D01*
X124136000Y-79126000D01*
X124136000Y-80028000D01*
X124136000Y-80028000D01*
G37*
G36*
X107400442Y-71095518D02*
G01*
X107466627Y-71102037D01*
X107636466Y-71153557D01*
X107792991Y-71237222D01*
X107828729Y-71266552D01*
X107930186Y-71349814D01*
X108013448Y-71451271D01*
X108042778Y-71487009D01*
X108126443Y-71643534D01*
X108177963Y-71813373D01*
X108195359Y-71990000D01*
X108177963Y-72166627D01*
X108126443Y-72336466D01*
X108042778Y-72492991D01*
X108013448Y-72528729D01*
X107930186Y-72630186D01*
X107828729Y-72713448D01*
X107792991Y-72742778D01*
X107636466Y-72826443D01*
X107466627Y-72877963D01*
X107400443Y-72884481D01*
X107334260Y-72891000D01*
X107245740Y-72891000D01*
X107179557Y-72884481D01*
X107113373Y-72877963D01*
X106943534Y-72826443D01*
X106787009Y-72742778D01*
X106751271Y-72713448D01*
X106649814Y-72630186D01*
X106566552Y-72528729D01*
X106537222Y-72492991D01*
X106453557Y-72336466D01*
X106402037Y-72166627D01*
X106384641Y-71990000D01*
X106402037Y-71813373D01*
X106453557Y-71643534D01*
X106537222Y-71487009D01*
X106566552Y-71451271D01*
X106649814Y-71349814D01*
X106751271Y-71266552D01*
X106787009Y-71237222D01*
X106943534Y-71153557D01*
X107113373Y-71102037D01*
X107179558Y-71095518D01*
X107245740Y-71089000D01*
X107334260Y-71089000D01*
X107400442Y-71095518D01*
X107400442Y-71095518D01*
G37*
G36*
X104860442Y-71095518D02*
G01*
X104926627Y-71102037D01*
X105096466Y-71153557D01*
X105252991Y-71237222D01*
X105288729Y-71266552D01*
X105390186Y-71349814D01*
X105473448Y-71451271D01*
X105502778Y-71487009D01*
X105586443Y-71643534D01*
X105637963Y-71813373D01*
X105655359Y-71990000D01*
X105637963Y-72166627D01*
X105586443Y-72336466D01*
X105502778Y-72492991D01*
X105473448Y-72528729D01*
X105390186Y-72630186D01*
X105288729Y-72713448D01*
X105252991Y-72742778D01*
X105096466Y-72826443D01*
X104926627Y-72877963D01*
X104860443Y-72884481D01*
X104794260Y-72891000D01*
X104705740Y-72891000D01*
X104639557Y-72884481D01*
X104573373Y-72877963D01*
X104403534Y-72826443D01*
X104247009Y-72742778D01*
X104211271Y-72713448D01*
X104109814Y-72630186D01*
X104026552Y-72528729D01*
X103997222Y-72492991D01*
X103913557Y-72336466D01*
X103862037Y-72166627D01*
X103844641Y-71990000D01*
X103862037Y-71813373D01*
X103913557Y-71643534D01*
X103997222Y-71487009D01*
X104026552Y-71451271D01*
X104109814Y-71349814D01*
X104211271Y-71266552D01*
X104247009Y-71237222D01*
X104403534Y-71153557D01*
X104573373Y-71102037D01*
X104639558Y-71095518D01*
X104705740Y-71089000D01*
X104794260Y-71089000D01*
X104860442Y-71095518D01*
X104860442Y-71095518D01*
G37*
G36*
X107400442Y-68555518D02*
G01*
X107466627Y-68562037D01*
X107636466Y-68613557D01*
X107792991Y-68697222D01*
X107828729Y-68726552D01*
X107930186Y-68809814D01*
X108013448Y-68911271D01*
X108042778Y-68947009D01*
X108126443Y-69103534D01*
X108177963Y-69273373D01*
X108195359Y-69450000D01*
X108177963Y-69626627D01*
X108126443Y-69796466D01*
X108042778Y-69952991D01*
X108013448Y-69988729D01*
X107930186Y-70090186D01*
X107828729Y-70173448D01*
X107792991Y-70202778D01*
X107636466Y-70286443D01*
X107466627Y-70337963D01*
X107400442Y-70344482D01*
X107334260Y-70351000D01*
X107245740Y-70351000D01*
X107179558Y-70344482D01*
X107113373Y-70337963D01*
X106943534Y-70286443D01*
X106787009Y-70202778D01*
X106751271Y-70173448D01*
X106649814Y-70090186D01*
X106566552Y-69988729D01*
X106537222Y-69952991D01*
X106453557Y-69796466D01*
X106402037Y-69626627D01*
X106384641Y-69450000D01*
X106402037Y-69273373D01*
X106453557Y-69103534D01*
X106537222Y-68947009D01*
X106566552Y-68911271D01*
X106649814Y-68809814D01*
X106751271Y-68726552D01*
X106787009Y-68697222D01*
X106943534Y-68613557D01*
X107113373Y-68562037D01*
X107179558Y-68555518D01*
X107245740Y-68549000D01*
X107334260Y-68549000D01*
X107400442Y-68555518D01*
X107400442Y-68555518D01*
G37*
G36*
X104860442Y-68555518D02*
G01*
X104926627Y-68562037D01*
X105096466Y-68613557D01*
X105252991Y-68697222D01*
X105288729Y-68726552D01*
X105390186Y-68809814D01*
X105473448Y-68911271D01*
X105502778Y-68947009D01*
X105586443Y-69103534D01*
X105637963Y-69273373D01*
X105655359Y-69450000D01*
X105637963Y-69626627D01*
X105586443Y-69796466D01*
X105502778Y-69952991D01*
X105473448Y-69988729D01*
X105390186Y-70090186D01*
X105288729Y-70173448D01*
X105252991Y-70202778D01*
X105096466Y-70286443D01*
X104926627Y-70337963D01*
X104860442Y-70344482D01*
X104794260Y-70351000D01*
X104705740Y-70351000D01*
X104639558Y-70344482D01*
X104573373Y-70337963D01*
X104403534Y-70286443D01*
X104247009Y-70202778D01*
X104211271Y-70173448D01*
X104109814Y-70090186D01*
X104026552Y-69988729D01*
X103997222Y-69952991D01*
X103913557Y-69796466D01*
X103862037Y-69626627D01*
X103844641Y-69450000D01*
X103862037Y-69273373D01*
X103913557Y-69103534D01*
X103997222Y-68947009D01*
X104026552Y-68911271D01*
X104109814Y-68809814D01*
X104211271Y-68726552D01*
X104247009Y-68697222D01*
X104403534Y-68613557D01*
X104573373Y-68562037D01*
X104639558Y-68555518D01*
X104705740Y-68549000D01*
X104794260Y-68549000D01*
X104860442Y-68555518D01*
X104860442Y-68555518D01*
G37*
G36*
X107400443Y-66015519D02*
G01*
X107466627Y-66022037D01*
X107636466Y-66073557D01*
X107792991Y-66157222D01*
X107828729Y-66186552D01*
X107930186Y-66269814D01*
X108013448Y-66371271D01*
X108042778Y-66407009D01*
X108126443Y-66563534D01*
X108177963Y-66733373D01*
X108195359Y-66910000D01*
X108177963Y-67086627D01*
X108126443Y-67256466D01*
X108042778Y-67412991D01*
X108013448Y-67448729D01*
X107930186Y-67550186D01*
X107828729Y-67633448D01*
X107792991Y-67662778D01*
X107636466Y-67746443D01*
X107466627Y-67797963D01*
X107400442Y-67804482D01*
X107334260Y-67811000D01*
X107245740Y-67811000D01*
X107179558Y-67804482D01*
X107113373Y-67797963D01*
X106943534Y-67746443D01*
X106787009Y-67662778D01*
X106751271Y-67633448D01*
X106649814Y-67550186D01*
X106566552Y-67448729D01*
X106537222Y-67412991D01*
X106453557Y-67256466D01*
X106402037Y-67086627D01*
X106384641Y-66910000D01*
X106402037Y-66733373D01*
X106453557Y-66563534D01*
X106537222Y-66407009D01*
X106566552Y-66371271D01*
X106649814Y-66269814D01*
X106751271Y-66186552D01*
X106787009Y-66157222D01*
X106943534Y-66073557D01*
X107113373Y-66022037D01*
X107179557Y-66015519D01*
X107245740Y-66009000D01*
X107334260Y-66009000D01*
X107400443Y-66015519D01*
X107400443Y-66015519D01*
G37*
G36*
X104860443Y-66015519D02*
G01*
X104926627Y-66022037D01*
X105096466Y-66073557D01*
X105252991Y-66157222D01*
X105288729Y-66186552D01*
X105390186Y-66269814D01*
X105473448Y-66371271D01*
X105502778Y-66407009D01*
X105586443Y-66563534D01*
X105637963Y-66733373D01*
X105655359Y-66910000D01*
X105637963Y-67086627D01*
X105586443Y-67256466D01*
X105502778Y-67412991D01*
X105473448Y-67448729D01*
X105390186Y-67550186D01*
X105288729Y-67633448D01*
X105252991Y-67662778D01*
X105096466Y-67746443D01*
X104926627Y-67797963D01*
X104860442Y-67804482D01*
X104794260Y-67811000D01*
X104705740Y-67811000D01*
X104639558Y-67804482D01*
X104573373Y-67797963D01*
X104403534Y-67746443D01*
X104247009Y-67662778D01*
X104211271Y-67633448D01*
X104109814Y-67550186D01*
X104026552Y-67448729D01*
X103997222Y-67412991D01*
X103913557Y-67256466D01*
X103862037Y-67086627D01*
X103844641Y-66910000D01*
X103862037Y-66733373D01*
X103913557Y-66563534D01*
X103997222Y-66407009D01*
X104026552Y-66371271D01*
X104109814Y-66269814D01*
X104211271Y-66186552D01*
X104247009Y-66157222D01*
X104403534Y-66073557D01*
X104573373Y-66022037D01*
X104639557Y-66015519D01*
X104705740Y-66009000D01*
X104794260Y-66009000D01*
X104860443Y-66015519D01*
X104860443Y-66015519D01*
G37*
G36*
X107400443Y-63475519D02*
G01*
X107466627Y-63482037D01*
X107636466Y-63533557D01*
X107792991Y-63617222D01*
X107828729Y-63646552D01*
X107930186Y-63729814D01*
X108013448Y-63831271D01*
X108042778Y-63867009D01*
X108126443Y-64023534D01*
X108177963Y-64193373D01*
X108195359Y-64370000D01*
X108177963Y-64546627D01*
X108126443Y-64716466D01*
X108042778Y-64872991D01*
X108013448Y-64908729D01*
X107930186Y-65010186D01*
X107828729Y-65093448D01*
X107792991Y-65122778D01*
X107636466Y-65206443D01*
X107466627Y-65257963D01*
X107400443Y-65264481D01*
X107334260Y-65271000D01*
X107245740Y-65271000D01*
X107179557Y-65264481D01*
X107113373Y-65257963D01*
X106943534Y-65206443D01*
X106787009Y-65122778D01*
X106751271Y-65093448D01*
X106649814Y-65010186D01*
X106566552Y-64908729D01*
X106537222Y-64872991D01*
X106453557Y-64716466D01*
X106402037Y-64546627D01*
X106384641Y-64370000D01*
X106402037Y-64193373D01*
X106453557Y-64023534D01*
X106537222Y-63867009D01*
X106566552Y-63831271D01*
X106649814Y-63729814D01*
X106751271Y-63646552D01*
X106787009Y-63617222D01*
X106943534Y-63533557D01*
X107113373Y-63482037D01*
X107179557Y-63475519D01*
X107245740Y-63469000D01*
X107334260Y-63469000D01*
X107400443Y-63475519D01*
X107400443Y-63475519D01*
G37*
G36*
X104860443Y-63475519D02*
G01*
X104926627Y-63482037D01*
X105096466Y-63533557D01*
X105252991Y-63617222D01*
X105288729Y-63646552D01*
X105390186Y-63729814D01*
X105473448Y-63831271D01*
X105502778Y-63867009D01*
X105586443Y-64023534D01*
X105637963Y-64193373D01*
X105655359Y-64370000D01*
X105637963Y-64546627D01*
X105586443Y-64716466D01*
X105502778Y-64872991D01*
X105473448Y-64908729D01*
X105390186Y-65010186D01*
X105288729Y-65093448D01*
X105252991Y-65122778D01*
X105096466Y-65206443D01*
X104926627Y-65257963D01*
X104860443Y-65264481D01*
X104794260Y-65271000D01*
X104705740Y-65271000D01*
X104639557Y-65264481D01*
X104573373Y-65257963D01*
X104403534Y-65206443D01*
X104247009Y-65122778D01*
X104211271Y-65093448D01*
X104109814Y-65010186D01*
X104026552Y-64908729D01*
X103997222Y-64872991D01*
X103913557Y-64716466D01*
X103862037Y-64546627D01*
X103844641Y-64370000D01*
X103862037Y-64193373D01*
X103913557Y-64023534D01*
X103997222Y-63867009D01*
X104026552Y-63831271D01*
X104109814Y-63729814D01*
X104211271Y-63646552D01*
X104247009Y-63617222D01*
X104403534Y-63533557D01*
X104573373Y-63482037D01*
X104639557Y-63475519D01*
X104705740Y-63469000D01*
X104794260Y-63469000D01*
X104860443Y-63475519D01*
X104860443Y-63475519D01*
G37*
G36*
X107400443Y-60935519D02*
G01*
X107466627Y-60942037D01*
X107636466Y-60993557D01*
X107792991Y-61077222D01*
X107828729Y-61106552D01*
X107930186Y-61189814D01*
X108013448Y-61291271D01*
X108042778Y-61327009D01*
X108126443Y-61483534D01*
X108177963Y-61653373D01*
X108195359Y-61830000D01*
X108177963Y-62006627D01*
X108126443Y-62176466D01*
X108042778Y-62332991D01*
X108013448Y-62368729D01*
X107930186Y-62470186D01*
X107828729Y-62553448D01*
X107792991Y-62582778D01*
X107636466Y-62666443D01*
X107466627Y-62717963D01*
X107400443Y-62724481D01*
X107334260Y-62731000D01*
X107245740Y-62731000D01*
X107179557Y-62724481D01*
X107113373Y-62717963D01*
X106943534Y-62666443D01*
X106787009Y-62582778D01*
X106751271Y-62553448D01*
X106649814Y-62470186D01*
X106566552Y-62368729D01*
X106537222Y-62332991D01*
X106453557Y-62176466D01*
X106402037Y-62006627D01*
X106384641Y-61830000D01*
X106402037Y-61653373D01*
X106453557Y-61483534D01*
X106537222Y-61327009D01*
X106566552Y-61291271D01*
X106649814Y-61189814D01*
X106751271Y-61106552D01*
X106787009Y-61077222D01*
X106943534Y-60993557D01*
X107113373Y-60942037D01*
X107179557Y-60935519D01*
X107245740Y-60929000D01*
X107334260Y-60929000D01*
X107400443Y-60935519D01*
X107400443Y-60935519D01*
G37*
G36*
X104860443Y-60935519D02*
G01*
X104926627Y-60942037D01*
X105096466Y-60993557D01*
X105252991Y-61077222D01*
X105288729Y-61106552D01*
X105390186Y-61189814D01*
X105473448Y-61291271D01*
X105502778Y-61327009D01*
X105586443Y-61483534D01*
X105637963Y-61653373D01*
X105655359Y-61830000D01*
X105637963Y-62006627D01*
X105586443Y-62176466D01*
X105502778Y-62332991D01*
X105473448Y-62368729D01*
X105390186Y-62470186D01*
X105288729Y-62553448D01*
X105252991Y-62582778D01*
X105096466Y-62666443D01*
X104926627Y-62717963D01*
X104860443Y-62724481D01*
X104794260Y-62731000D01*
X104705740Y-62731000D01*
X104639557Y-62724481D01*
X104573373Y-62717963D01*
X104403534Y-62666443D01*
X104247009Y-62582778D01*
X104211271Y-62553448D01*
X104109814Y-62470186D01*
X104026552Y-62368729D01*
X103997222Y-62332991D01*
X103913557Y-62176466D01*
X103862037Y-62006627D01*
X103844641Y-61830000D01*
X103862037Y-61653373D01*
X103913557Y-61483534D01*
X103997222Y-61327009D01*
X104026552Y-61291271D01*
X104109814Y-61189814D01*
X104211271Y-61106552D01*
X104247009Y-61077222D01*
X104403534Y-60993557D01*
X104573373Y-60942037D01*
X104639557Y-60935519D01*
X104705740Y-60929000D01*
X104794260Y-60929000D01*
X104860443Y-60935519D01*
X104860443Y-60935519D01*
G37*
G36*
X104860442Y-58395518D02*
G01*
X104926627Y-58402037D01*
X105096466Y-58453557D01*
X105252991Y-58537222D01*
X105288729Y-58566552D01*
X105390186Y-58649814D01*
X105473448Y-58751271D01*
X105502778Y-58787009D01*
X105586443Y-58943534D01*
X105637963Y-59113373D01*
X105655359Y-59290000D01*
X105637963Y-59466627D01*
X105586443Y-59636466D01*
X105502778Y-59792991D01*
X105473448Y-59828729D01*
X105390186Y-59930186D01*
X105288729Y-60013448D01*
X105252991Y-60042778D01*
X105096466Y-60126443D01*
X104926627Y-60177963D01*
X104860442Y-60184482D01*
X104794260Y-60191000D01*
X104705740Y-60191000D01*
X104639558Y-60184482D01*
X104573373Y-60177963D01*
X104403534Y-60126443D01*
X104247009Y-60042778D01*
X104211271Y-60013448D01*
X104109814Y-59930186D01*
X104026552Y-59828729D01*
X103997222Y-59792991D01*
X103913557Y-59636466D01*
X103862037Y-59466627D01*
X103844641Y-59290000D01*
X103862037Y-59113373D01*
X103913557Y-58943534D01*
X103997222Y-58787009D01*
X104026552Y-58751271D01*
X104109814Y-58649814D01*
X104211271Y-58566552D01*
X104247009Y-58537222D01*
X104403534Y-58453557D01*
X104573373Y-58402037D01*
X104639558Y-58395518D01*
X104705740Y-58389000D01*
X104794260Y-58389000D01*
X104860442Y-58395518D01*
X104860442Y-58395518D01*
G37*
G36*
X107400442Y-58395518D02*
G01*
X107466627Y-58402037D01*
X107636466Y-58453557D01*
X107792991Y-58537222D01*
X107828729Y-58566552D01*
X107930186Y-58649814D01*
X108013448Y-58751271D01*
X108042778Y-58787009D01*
X108126443Y-58943534D01*
X108177963Y-59113373D01*
X108195359Y-59290000D01*
X108177963Y-59466627D01*
X108126443Y-59636466D01*
X108042778Y-59792991D01*
X108013448Y-59828729D01*
X107930186Y-59930186D01*
X107828729Y-60013448D01*
X107792991Y-60042778D01*
X107636466Y-60126443D01*
X107466627Y-60177963D01*
X107400442Y-60184482D01*
X107334260Y-60191000D01*
X107245740Y-60191000D01*
X107179558Y-60184482D01*
X107113373Y-60177963D01*
X106943534Y-60126443D01*
X106787009Y-60042778D01*
X106751271Y-60013448D01*
X106649814Y-59930186D01*
X106566552Y-59828729D01*
X106537222Y-59792991D01*
X106453557Y-59636466D01*
X106402037Y-59466627D01*
X106384641Y-59290000D01*
X106402037Y-59113373D01*
X106453557Y-58943534D01*
X106537222Y-58787009D01*
X106566552Y-58751271D01*
X106649814Y-58649814D01*
X106751271Y-58566552D01*
X106787009Y-58537222D01*
X106943534Y-58453557D01*
X107113373Y-58402037D01*
X107179558Y-58395518D01*
X107245740Y-58389000D01*
X107334260Y-58389000D01*
X107400442Y-58395518D01*
X107400442Y-58395518D01*
G37*
G36*
X107400443Y-55855519D02*
G01*
X107466627Y-55862037D01*
X107636466Y-55913557D01*
X107792991Y-55997222D01*
X107828729Y-56026552D01*
X107930186Y-56109814D01*
X108013448Y-56211271D01*
X108042778Y-56247009D01*
X108126443Y-56403534D01*
X108177963Y-56573373D01*
X108195359Y-56750000D01*
X108177963Y-56926627D01*
X108126443Y-57096466D01*
X108042778Y-57252991D01*
X108013448Y-57288729D01*
X107930186Y-57390186D01*
X107828729Y-57473448D01*
X107792991Y-57502778D01*
X107636466Y-57586443D01*
X107466627Y-57637963D01*
X107400442Y-57644482D01*
X107334260Y-57651000D01*
X107245740Y-57651000D01*
X107179558Y-57644482D01*
X107113373Y-57637963D01*
X106943534Y-57586443D01*
X106787009Y-57502778D01*
X106751271Y-57473448D01*
X106649814Y-57390186D01*
X106566552Y-57288729D01*
X106537222Y-57252991D01*
X106453557Y-57096466D01*
X106402037Y-56926627D01*
X106384641Y-56750000D01*
X106402037Y-56573373D01*
X106453557Y-56403534D01*
X106537222Y-56247009D01*
X106566552Y-56211271D01*
X106649814Y-56109814D01*
X106751271Y-56026552D01*
X106787009Y-55997222D01*
X106943534Y-55913557D01*
X107113373Y-55862037D01*
X107179557Y-55855519D01*
X107245740Y-55849000D01*
X107334260Y-55849000D01*
X107400443Y-55855519D01*
X107400443Y-55855519D01*
G37*
G36*
X105651000Y-57651000D02*
G01*
X103849000Y-57651000D01*
X103849000Y-55849000D01*
X105651000Y-55849000D01*
X105651000Y-57651000D01*
X105651000Y-57651000D01*
G37*
M02*
