G04 #@! TF.GenerationSoftware,KiCad,Pcbnew,(5.1.4)-1*
G04 #@! TF.CreationDate,2019-08-22T22:42:39+09:00*
G04 #@! TF.ProjectId,kagisys_shield,6b616769-7379-4735-9f73-6869656c642e,rev?*
G04 #@! TF.SameCoordinates,Original*
G04 #@! TF.FileFunction,Copper,L1,Top*
G04 #@! TF.FilePolarity,Positive*
%FSLAX46Y46*%
G04 Gerber Fmt 4.6, Leading zero omitted, Abs format (unit mm)*
G04 Created by KiCad (PCBNEW (5.1.4)-1) date 2019-08-22 22:42:39*
%MOMM*%
%LPD*%
G04 APERTURE LIST*
%ADD10R,1.700000X1.700000*%
%ADD11O,1.700000X1.700000*%
%ADD12R,0.900000X0.800000*%
%ADD13O,1.600000X1.600000*%
%ADD14C,1.600000*%
%ADD15C,1.500000*%
%ADD16C,0.800000*%
%ADD17C,0.500000*%
%ADD18C,1.500000*%
G04 APERTURE END LIST*
D10*
X140000000Y-99000000D03*
D11*
X142540000Y-99000000D03*
X145080000Y-99000000D03*
X147620000Y-99000000D03*
D10*
X108250000Y-99000000D03*
D11*
X110790000Y-99000000D03*
X113330000Y-99000000D03*
D10*
X125500000Y-99000000D03*
D11*
X128040000Y-99000000D03*
X181790000Y-99000000D03*
D10*
X179250000Y-99000000D03*
D11*
X166620000Y-99000000D03*
X164080000Y-99000000D03*
X161540000Y-99000000D03*
D10*
X159000000Y-99000000D03*
X104750000Y-56750000D03*
D11*
X107290000Y-56750000D03*
X104750000Y-59290000D03*
X107290000Y-59290000D03*
X104750000Y-61830000D03*
X107290000Y-61830000D03*
X104750000Y-64370000D03*
X107290000Y-64370000D03*
X104750000Y-66910000D03*
X107290000Y-66910000D03*
X104750000Y-69450000D03*
X107290000Y-69450000D03*
X104750000Y-71990000D03*
X107290000Y-71990000D03*
D12*
X123635000Y-79577000D03*
X123635000Y-81477000D03*
X125635000Y-80527000D03*
X130750000Y-84250000D03*
X132750000Y-83300000D03*
X132750000Y-85200000D03*
D13*
X117200000Y-80500000D03*
D14*
X104500000Y-80500000D03*
X104500000Y-86500000D03*
D13*
X117200000Y-86500000D03*
D15*
X132750000Y-80750000D03*
D16*
X102547200Y-64370000D03*
X102468300Y-67010200D03*
D15*
X123635000Y-73635000D03*
X122750000Y-84000000D03*
X129000000Y-80750000D03*
D17*
X107290000Y-59290000D02*
X115004000Y-59290000D01*
X115004000Y-59290000D02*
X147620000Y-91906000D01*
X147620000Y-91906000D02*
X147620000Y-99000000D01*
X104750000Y-71990000D02*
X103398000Y-70638000D01*
X103398000Y-70638000D02*
X103398000Y-63182000D01*
X103398000Y-63182000D02*
X104750000Y-61830000D01*
D18*
X132750000Y-80750000D02*
X132750000Y-83300000D01*
D17*
X145080000Y-99000000D02*
X145080000Y-90356500D01*
X145080000Y-90356500D02*
X116553500Y-61830000D01*
X116553500Y-61830000D02*
X107290000Y-61830000D01*
X164080000Y-99000000D02*
X120529600Y-55449600D01*
X120529600Y-55449600D02*
X103671700Y-55449600D01*
X103671700Y-55449600D02*
X102547200Y-56574100D01*
X102547200Y-56574100D02*
X102547200Y-64370000D01*
X107290000Y-64370000D02*
X118103000Y-64370000D01*
X118103000Y-64370000D02*
X134425800Y-80692800D01*
X134425800Y-80692800D02*
X134425800Y-95873200D01*
X134425800Y-95873200D02*
X138882800Y-100330200D01*
X138882800Y-100330200D02*
X165289800Y-100330200D01*
X165289800Y-100330200D02*
X166620000Y-99000000D01*
X102468300Y-67010200D02*
X102468300Y-81380800D01*
X102468300Y-81380800D02*
X122118000Y-101030500D01*
X122118000Y-101030500D02*
X179759500Y-101030500D01*
X179759500Y-101030500D02*
X181790000Y-99000000D01*
X132750000Y-85200000D02*
X131800000Y-85200000D01*
X104500000Y-80500000D02*
X113500000Y-80500000D01*
X113500000Y-80500000D02*
X118454600Y-85454600D01*
X118454600Y-85454600D02*
X131545400Y-85454600D01*
X131545400Y-85454600D02*
X131800000Y-85200000D01*
X123635000Y-81477000D02*
X111608000Y-69450000D01*
X111608000Y-69450000D02*
X107290000Y-69450000D01*
X107290000Y-71990000D02*
X107290000Y-73340000D01*
X107290000Y-73340000D02*
X103218300Y-77411700D01*
X103218300Y-77411700D02*
X103218300Y-81055500D01*
X103218300Y-81055500D02*
X121162800Y-99000000D01*
X121162800Y-99000000D02*
X125500000Y-99000000D01*
D18*
X123635000Y-79577000D02*
X123635000Y-73635000D01*
X122750000Y-84000000D02*
X130500000Y-84000000D01*
X130500000Y-84000000D02*
X130750000Y-84250000D01*
X129000000Y-80750000D02*
X125858000Y-80750000D01*
X125858000Y-80750000D02*
X125635000Y-80527000D01*
M02*
